<?xml version="1.0" encoding="UTF-8" standalone="no"?>
<!-- Created with Inkscape (http://www.inkscape.org/) -->

<svg
   xmlns:dc="http://purl.org/dc/elements/1.1/"
   xmlns:cc="http://creativecommons.org/ns#"
   xmlns:rdf="http://www.w3.org/1999/02/22-rdf-syntax-ns#"
   xmlns:svg="http://www.w3.org/2000/svg"
   xmlns="http://www.w3.org/2000/svg"
   xmlns:sodipodi="http://sodipodi.sourceforge.net/DTD/sodipodi-0.dtd"
   xmlns:inkscape="http://www.inkscape.org/namespaces/inkscape"
   id="svg3004"
   version="1.1"
   inkscape:version="0.48.4 r9939"
   width="313.95375"
   height="318.31375"
   xml:space="preserve"
   sodipodi:docname="logo_petit.pdf"><metadata
     id="metadata3010"><rdf:RDF><cc:Work
         rdf:about=""><dc:format>image/svg+xml</dc:format><dc:type
           rdf:resource="http://purl.org/dc/dcmitype/StillImage" /><dc:title></dc:title></cc:Work></rdf:RDF></metadata><defs
     id="defs3008"><clipPath
       clipPathUnits="userSpaceOnUse"
       id="clipPath3018"><path
         d="m 0,254.651 251.163,0 L 251.163,0 0,0 0,254.651 z"
         id="path3020" /></clipPath></defs><sodipodi:namedview
     pagecolor="#ffffff"
     bordercolor="#666666"
     borderopacity="1"
     objecttolerance="10"
     gridtolerance="10"
     guidetolerance="10"
     inkscape:pageopacity="0"
     inkscape:pageshadow="2"
     inkscape:window-width="640"
     inkscape:window-height="502"
     id="namedview3006"
     showgrid="false"
     inkscape:zoom="0.74140686"
     inkscape:cx="156.97687"
     inkscape:cy="159.15688"
     inkscape:window-x="0"
     inkscape:window-y="27"
     inkscape:window-maximized="0"
     inkscape:current-layer="g3012" /><g
     id="g3012"
     inkscape:groupmode="layer"
     inkscape:label="logo_petit"
     transform="matrix(1.25,0,0,-1.25,0,318.31375)"><g
       id="g3014"><g
         id="g3016"
         clip-path="url(#clipPath3018)"><g
           id="g3022"
           transform="translate(171.7029,105.8433)"><path
             d="m 0,0 -13.58,-9.139 -0.325,-0.219 -0.081,-0.055 c -0.017,-0.007 -0.107,-0.077 -0.112,-0.084 l -0.142,-0.117 c -0.192,-0.151 -0.395,-0.298 -0.583,-0.398 -0.046,-0.024 -0.091,-0.045 -0.127,-0.057 -0.01,-0.004 -0.016,-0.005 -0.023,-0.008 -0.002,10e-4 -0.002,10e-4 -0.003,0.002 -0.027,0.017 -0.062,0.046 -0.098,0.079 -0.148,0.139 -0.299,0.335 -0.437,0.532 -0.069,0.099 -0.136,0.202 -0.201,0.305 l -0.047,0.076 c -0.024,0.041 -0.002,0 -0.025,0.049 l -0.081,0.172 -0.322,0.689 -0.054,0.118 c -0.937,2.389 -2.386,6.17 -2.856,7.873 -0.146,0.532 -0.348,1.856 0,2.235 0.188,0.206 0.773,0.105 1.196,-0.004 0.029,-0.012 0.055,-0.024 0.085,-0.037 0.2,-0.085 0.545,-0.228 0.97,-0.397 1.576,-0.777 5.898,-2.783 7.55,-2.271 0.223,0.069 0.497,0.335 0.749,0.632 0.129,0.081 0.252,0.164 0.357,0.253 0.26,0.224 0.483,0.462 0.697,0.708 0.212,0.257 0.411,0.473 0.606,0.791 l 0.501,0.797 1.996,3.184 3.534,5.684 C 0.645,8.829 3.495,2.639 3.294,2.481 2.646,1.975 1.821,1.328 0.891,0.597 L 0,0 z m 26.939,-20.8 c -0.02,0.068 -0.041,0.138 -0.072,0.215 -0.038,0.091 -0.099,0.184 -0.151,0.251 -0.109,0.136 -0.227,0.246 -0.353,0.349 -0.172,0.143 -0.456,0.347 -0.822,0.569 l -0.141,0.084 -0.073,0.042 -0.019,0.011 -0.289,0.159 c -0.131,0.071 -0.264,0.138 -0.404,0.203 -0.594,0.277 -1.216,0.36 -1.804,0.421 -0.592,0.059 -1.175,0.08 -1.729,0.155 -0.547,0.07 -1.093,0.208 -1.386,0.514 -0.119,0.123 -0.289,0.437 -0.443,0.674 l -0.47,0.759 -0.947,1.529 -3.864,6.251 C 11.361,-4.376 8.678,0 5.963,4.5 4.607,6.75 3.241,9.032 1.883,11.349 l -1.014,1.745 -0.253,0.439 -0.059,0.104 c -0.013,0.024 -0.026,0.051 -0.038,0.079 -0.024,0.057 -0.046,0.12 -0.065,0.189 -0.074,0.278 -0.107,0.605 -0.136,0.937 -0.03,0.334 -0.055,0.68 -0.107,1.036 -0.026,0.178 -0.061,0.36 -0.11,0.545 -0.051,0.184 -0.109,0.37 -0.232,0.575 -0.244,0.391 -0.588,0.602 -0.826,0.799 -0.122,0.099 -0.224,0.194 -0.296,0.291 -0.059,0.075 -0.15,0.253 -0.232,0.398 -2.691,4.788 -5.574,9.557 -8.421,14.427 -1.425,2.433 -2.85,4.885 -4.245,7.366 -0.697,1.241 -1.386,2.489 -2.056,3.75 -0.335,0.629 -0.664,1.263 -0.985,1.9 l -0.239,0.479 c -0.067,0.139 -0.195,0.39 -0.163,0.344 -0.005,0.065 0.032,0.223 0.087,0.364 0.056,0.146 0.127,0.299 0.205,0.45 0.156,0.303 0.336,0.605 0.521,0.914 0.091,0.153 0.189,0.317 0.277,0.482 0.074,0.138 0.167,0.282 0.264,0.427 0.391,0.584 0.844,1.163 1.191,1.864 0.161,0.353 0.341,0.747 0.272,1.271 -0.084,0.413 -0.194,0.745 -0.316,1.103 -0.245,0.7 -0.534,1.372 -0.838,2.036 -1.233,2.645 -2.678,5.17 -4.261,7.62 -0.399,0.61 -0.81,1.215 -1.242,1.807 -0.217,0.296 -0.438,0.589 -0.672,0.878 -0.213,0.26 -0.432,0.587 -0.744,0.871 -0.157,0.14 -0.339,0.274 -0.561,0.369 -0.235,0.098 -0.444,0.122 -0.638,0.145 -0.392,0.04 -0.772,0.041 -1.165,0.005 -0.785,-0.089 -1.492,-0.315 -2.193,-0.559 -1.392,-0.505 -2.717,-1.142 -3.988,-1.888 -0.634,-0.375 -1.252,-0.781 -1.841,-1.243 -0.293,-0.232 -0.579,-0.478 -0.848,-0.754 -0.134,-0.138 -0.264,-0.284 -0.386,-0.441 -0.109,-0.145 -0.192,-0.238 -0.321,-0.357 -0.059,-0.058 -0.17,-0.152 -0.252,-0.306 -0.078,-0.15 -0.098,-0.279 -0.115,-0.388 -0.028,-0.218 -0.03,-0.402 -0.034,-0.589 -10e-4,-0.38 -0.005,-0.712 0.012,-1.114 0.059,-0.787 0.279,-1.511 0.535,-2.207 0.525,-1.388 1.222,-2.673 1.96,-3.923 1.499,-2.489 3.172,-4.836 5.015,-7.057 0.24,-0.279 0.462,-0.546 0.755,-0.826 0.027,-0.025 0.113,-0.105 0.185,-0.14 0.076,-0.042 0.162,-0.069 0.248,-0.079 0.121,-0.017 0.208,-0.021 0.305,-0.027 0.189,-0.01 0.371,-0.013 0.553,-0.014 0.363,-0.002 0.723,0.003 1.082,0.015 l 0.543,0.022 c 0.18,0.007 0.397,0.033 0.572,0.064 0.72,0.125 1.401,0.292 2.046,0.307 0.312,0.01 0.625,-0.052 0.722,-0.161 0.027,-0.008 0.14,-0.225 0.224,-0.361 l 0.266,-0.458 4.211,-7.303 8.23,-14.288 4.015,-6.942 c 0.017,-0.04 0.008,0 0.013,-0.047 0,-0.035 -0.004,-0.087 -0.018,-0.147 -0.028,-0.12 -0.08,-0.256 -0.14,-0.391 C -3.982,15.483 -4.141,15.209 -4.31,14.94 -4.649,14.402 -5.031,13.88 -5.423,13.368 -6.211,12.345 -7.047,11.36 -7.893,10.396 -8.392,9.829 -8.896,9.269 -9.403,8.716 L -10.167,7.894 -10.55,7.489 C -10.668,7.372 -10.808,7.238 -10.939,7.117 -11.206,6.87 -11.48,6.63 -11.759,6.422 -11.898,6.319 -12.042,6.221 -12.171,6.155 -12.232,6.122 -12.3,6.099 -12.312,6.099 c 0.005,-0.002 -0.052,0.002 -0.12,0.02 -0.288,0.08 -0.625,0.243 -0.939,0.402 -0.319,0.164 -0.635,0.341 -0.947,0.523 l -0.467,0.277 c -0.142,0.095 -0.35,0.197 -0.368,0.246 l -0.753,0.792 -1.495,1.573 -2.948,3.1 -1.45,1.525 -0.72,0.757 -0.358,0.377 -0.179,0.188 -0.089,0.094 -0.072,0.076 c -0.032,0.028 -0.054,0.07 -0.098,0.079 l -1.979,0.785 -0.958,0.367 c -0.319,0.115 -0.638,0.247 -1,0.337 -1.355,0.319 -2.665,0.486 -3.902,0.826 l -0.227,0.066 -0.084,0.026 c -0.001,0 -0.001,0.001 -0.002,0.001 -0.001,0.002 -0.001,0.002 -0.001,0.002 0,0.001 -0.003,0.007 -0.012,0.03 -0.015,0.044 -0.03,0.103 -0.039,0.168 -0.037,0.258 -0.023,0.565 0.029,0.838 0.026,0.135 0.066,0.269 0.111,0.355 0.011,0.02 0.021,0.035 0.027,0.043 l 0.001,10e-4 0,0 0.027,0.015 0.065,0.04 c 0.052,0.034 0.085,0.058 0.124,0.086 0.286,0.216 0.523,0.439 0.763,0.667 0.472,0.458 0.912,0.934 1.323,1.439 0.204,0.253 0.401,0.513 0.583,0.794 0.09,0.142 0.177,0.288 0.255,0.449 0.08,0.16 0.144,0.348 0.184,0.515 0.154,0.679 0.157,1.308 0.165,1.933 l -0.019,1.823 0.004,0.216 c 0.002,0.086 0.002,0.169 -0.001,0.25 -0.005,0.161 -0.015,0.317 -0.029,0.47 -0.026,0.306 -0.06,0.605 -0.094,0.901 -0.067,0.589 -0.14,1.172 -0.166,1.729 -0.006,0.138 -0.008,0.275 -0.002,0.403 0.003,0.062 0.007,0.125 0.016,0.176 0.005,0.038 10e-4,0.013 0.003,0.022 l 0.037,0.02 0.176,0.088 0.381,0.172 c 0.518,0.223 1.047,0.433 1.568,0.643 1.045,0.42 2.075,0.831 3.077,1.267 0.502,0.218 0.996,0.441 1.482,0.686 0.243,0.124 0.483,0.251 0.722,0.397 0.12,0.077 0.232,0.138 0.38,0.268 0.13,0.119 0.231,0.249 0.316,0.388 0.164,0.278 0.285,0.589 0.256,0.977 -0.012,0.099 -0.031,0.194 -0.075,0.3 -0.054,0.123 -0.141,0.226 -0.22,0.292 -0.165,0.139 -0.327,0.201 -0.48,0.249 -0.306,0.089 -0.592,0.109 -0.885,0.095 -0.147,-0.009 -0.294,-0.025 -0.458,-0.072 l -0.37,-0.116 c -0.972,-0.325 -1.862,-0.718 -2.74,-1.055 -0.875,-0.339 -1.734,-0.634 -2.583,-0.806 -0.43,-0.104 -0.678,-0.066 -0.961,0.135 -0.273,0.201 -0.508,0.541 -0.733,0.887 -0.227,0.349 -0.45,0.72 -0.724,1.069 -0.133,0.171 -0.298,0.352 -0.446,0.492 -0.134,0.133 -0.27,0.28 -0.41,0.427 -0.554,0.586 -1.193,1.177 -2.005,1.459 -0.404,0.148 -0.84,0.176 -1.204,0.18 -0.38,0.007 -0.75,-0.015 -1.109,-0.057 -0.718,-0.084 -1.391,-0.24 -2.019,-0.433 -0.314,-0.097 -0.617,-0.203 -0.909,-0.317 -0.12,-0.039 -0.366,-0.151 -0.493,-0.264 -0.143,-0.111 -0.259,-0.226 -0.368,-0.341 -0.427,-0.461 -0.744,-0.932 -1.027,-1.398 -0.268,-0.472 -0.532,-0.914 -0.634,-1.478 -0.079,-0.485 -0.113,-0.917 -0.147,-1.321 l -0.139,-2.02 c -0.02,-0.269 -0.04,-0.505 -0.061,-0.704 l -0.017,-0.142 0,-0.003 c -0.014,-0.011 -0.031,-0.034 -0.059,-0.053 -0.157,-0.126 -0.294,-0.189 -0.288,-0.188 0.012,-0.003 -0.637,-0.35 -2.055,-0.825 -0.704,-0.245 -1.585,-0.524 -2.625,-0.907 -0.261,-0.098 -0.531,-0.203 -0.81,-0.325 -0.253,-0.113 -0.555,-0.226 -0.853,-0.375 -0.299,-0.151 -0.609,-0.322 -0.907,-0.593 -0.146,-0.137 -0.294,-0.306 -0.395,-0.542 -0.104,-0.235 -0.112,-0.548 -0.016,-0.794 0.102,-0.278 0.331,-0.483 0.546,-0.591 0.219,-0.112 0.435,-0.166 0.646,-0.202 0.422,-0.064 0.833,-0.056 1.247,-0.019 0.208,0.019 0.415,0.047 0.627,0.086 0.111,0.022 0.204,0.038 0.346,0.08 l 0.3,0.107 1.194,0.426 2.541,0.912 1.346,0.479 0.343,0.12 0.052,0.018 0.003,-10e-4 c 0.007,-0.007 -0.012,0.014 0.019,-0.02 0.022,-0.026 0.047,-0.062 0.072,-0.101 0.05,-0.082 0.098,-0.179 0.141,-0.283 0.173,-0.42 0.296,-0.909 0.401,-1.404 0.103,-0.5 0.187,-1.005 0.25,-1.535 0.134,-1.064 0.269,-2.164 0.382,-3.291 0.025,-0.25 0.046,-0.501 0.065,-0.75 -0.054,0.001 -0.11,0.004 -0.164,0.007 -0.564,0.035 -1.156,0.106 -1.75,0.175 l -3.681,0.446 c -0.633,0.069 -1.272,0.137 -1.937,0.171 -0.681,0.037 -1.358,-0.026 -2.025,-0.107 -0.669,-0.084 -1.339,-0.197 -2.012,-0.342 -0.67,-0.15 -1.358,-0.311 -2.034,-0.615 -0.761,-0.343 -1.489,-0.749 -2.217,-1.143 0.141,-0.043 0.287,-0.098 0.439,-0.168 0.16,-0.073 0.398,-0.208 0.649,-0.37 l 0.193,-0.118 c 0.077,-0.048 0.155,-0.097 0.232,-0.15 0.155,-0.105 0.312,-0.221 0.472,-0.345 l 0.375,-0.302 0.397,-0.339 c 0.264,-0.232 0.526,-0.474 0.785,-0.732 0.254,-0.258 0.528,-0.534 0.752,-0.874 0.22,-0.327 0.4,-0.668 0.565,-1.015 0.644,-1.391 1.074,-2.873 1.458,-4.326 0.376,-1.45 0.711,-2.877 0.947,-4.221 0.118,-0.671 0.211,-1.322 0.258,-1.95 0.023,-0.314 0.035,-0.622 0.02,-0.93 -0.015,-0.315 -0.06,-0.595 -0.103,-0.861 -0.386,-2.107 -0.832,-3.401 -0.824,-3.408 -0.002,0 -0.092,-0.329 -0.306,-0.914 -0.055,-0.147 -0.118,-0.308 -0.203,-0.49 -0.044,-0.091 -0.09,-0.186 -0.159,-0.295 -0.037,-0.056 -0.075,-0.115 -0.155,-0.191 -0.036,-0.034 -0.099,-0.09 -0.211,-0.129 -0.134,-0.052 -0.353,-0.005 -0.451,0.101 -0.147,0.162 -0.123,0.18 -0.162,0.232 l -0.082,0.15 -0.167,0.311 -0.347,0.673 c -0.96,1.878 -2.172,4.454 -3.526,7.103 -1.356,2.647 -2.78,5.432 -4.172,7.633 -0.176,0.271 -0.353,0.532 -0.534,0.76 -0.088,0.11 -0.184,0.217 -0.284,0.319 l -0.152,0.152 -0.125,0.118 c -0.124,0.114 -0.243,0.219 -0.354,0.312 -0.222,0.187 -0.409,0.331 -0.533,0.427 -0.476,0.359 -0.835,0.657 -1.17,0.96 -0.007,-0.002 -0.014,-0.004 -0.021,-0.005 -0.331,-0.056 -0.678,-0.061 -1.039,-0.04 -0.721,0.045 -1.49,0.161 -2.274,0.2 -1.574,0.096 -3.186,-0.098 -4.745,-0.494 -0.192,-0.05 -0.39,-0.097 -0.603,-0.17 -0.206,-0.07 -0.4,-0.155 -0.591,-0.245 -0.38,-0.18 -0.736,-0.389 -1.084,-0.606 -0.695,-0.437 -1.354,-0.916 -2.01,-1.402 -0.655,-0.486 -1.303,-0.984 -1.964,-1.457 -0.268,-0.19 -0.539,-0.373 -0.812,-0.546 0.234,-0.251 0.47,-0.536 0.732,-0.891 0.192,-0.261 0.574,-0.784 1.016,-1.445 0.242,-0.362 0.526,-0.8 0.775,-1.249 0.125,-0.227 0.252,-0.471 0.351,-0.738 0.098,-0.257 0.178,-0.516 0.25,-0.776 0.282,-1.044 0.455,-2.119 0.598,-3.174 0.139,-1.054 0.238,-2.086 0.297,-3.047 l 0.129,-2.572 0.032,-1.017 0.004,-0.5 c -0.001,-0.255 -0.006,-0.485 -0.014,-0.689 -0.037,-0.815 -0.122,-1.087 -0.118,-1.093 l -0.135,-0.634 -0.171,-0.781 c -0.004,-0.086 -0.031,0.031 -0.05,0.08 l -0.062,0.186 -0.13,0.39 -0.282,0.842 -0.602,1.724 -0.388,1.053 c -0.288,0.728 -0.578,1.562 -1.016,2.286 -0.459,0.751 -1.023,1.507 -1.6,2.248 -0.582,0.741 -1.186,1.467 -1.78,2.151 -0.297,0.341 -0.592,0.673 -0.883,0.986 -0.28,0.301 -0.583,0.587 -0.87,0.857 l -0.953,0.872 -0.45,0.404 c -0.366,0.328 -0.651,0.613 -0.904,0.894 -0.055,-0.005 -0.109,-0.011 -0.157,-0.017 l -1.282,-0.135 c -0.859,-0.092 -1.731,-0.185 -2.61,-0.356 -0.878,-0.168 -1.752,-0.434 -2.584,-0.782 -0.82,-0.334 -1.678,-0.763 -2.394,-1.359 -0.726,-0.584 -1.345,-1.281 -1.9,-2.005 -0.419,-0.54 -0.801,-1.106 -1.202,-1.629 0.397,-0.21 0.771,-0.501 1.169,-0.922 0.173,-0.183 0.468,-0.515 0.805,-0.947 0.28,-0.356 0.573,-0.765 0.871,-1.188 0.322,-0.45 0.591,-0.952 0.84,-1.467 0.486,-1.038 0.909,-2.137 1.095,-3.237 0.046,-0.268 0.059,-0.582 0.052,-0.823 -0.004,-0.251 -0.015,-0.493 -0.029,-0.721 -0.029,-0.458 -0.075,-0.866 -0.119,-1.205 -0.092,-0.68 -0.178,-1.09 -0.176,-1.09 l -0.088,-0.441 c -0.015,-0.069 -0.107,-0.497 -0.204,-0.843 l -0.077,-0.284 c -10e-4,-0.038 -0.026,-0.019 -0.047,-0.01 l -0.066,0.032 -0.135,0.064 c -0.176,0.083 -0.363,0.164 -0.559,0.31 -0.086,0.057 -0.219,0.169 -0.252,0.196 l -0.155,0.141 c -0.103,0.097 -0.204,0.2 -0.304,0.307 -0.2,0.215 -0.396,0.449 -0.593,0.694 -0.395,0.486 -0.79,1.046 -1.208,1.529 -0.906,0.996 -1.909,2.02 -2.758,2.873 -0.531,0.527 -1.059,0.932 -1.297,1.141 -0.436,0.364 -0.764,0.674 -1.056,0.988 l -0.016,-10e-4 c -0.12,-0.011 -0.251,-0.028 -0.372,-0.049 -0.49,-0.088 -0.952,-0.231 -1.402,-0.399 -0.898,-0.338 -1.749,-0.78 -2.555,-1.305 -0.802,-0.53 -1.565,-1.143 -2.2,-1.913 -0.605,-0.761 -1.142,-1.545 -1.63,-2.384 -0.967,-1.668 -1.679,-3.543 -1.866,-5.521 -0.11,-1.13 -0.043,-2.284 0.195,-3.399 0.059,-0.279 0.129,-0.557 0.205,-0.828 l 0.215,-0.798 c 0.074,-0.27 0.148,-0.553 0.286,-0.85 0.158,-0.32 0.318,-0.514 0.472,-0.756 0.314,-0.464 0.637,-0.925 0.994,-1.375 0.181,-0.225 0.364,-0.446 0.592,-0.664 0.059,-0.055 0.119,-0.109 0.194,-0.164 0.038,-0.029 0.079,-0.057 0.132,-0.086 0.065,-0.026 0.093,-0.07 0.293,-0.081 0.123,0.006 0.274,0.002 0.41,0.003 l 3.355,0 13.559,0 55.212,-0.001 13.544,0 c 2.235,-0.007 4.463,0.017 6.67,-0.016 0.558,-0.003 1.116,0.004 1.676,0.031 0.563,0.031 1.117,0.063 1.709,0.195 0.321,0.076 0.58,0.198 0.844,0.316 0.262,0.122 0.514,0.256 0.758,0.399 0.49,0.284 0.951,0.598 1.402,0.924 3.553,2.646 6.487,5.836 9.636,8.607 0.394,0.342 0.793,0.675 1.202,0.976 0.204,0.149 0.412,0.29 0.618,0.405 0.103,0.06 0.205,0.106 0.3,0.142 0.09,0.038 0.19,0.048 0.197,0.046 0.077,-0.005 0.288,-0.144 0.446,-0.299 0.168,-0.161 0.329,-0.347 0.483,-0.541 0.308,-0.392 0.59,-0.816 0.859,-1.247 0.535,-0.867 1.016,-1.769 1.467,-2.68 0.225,-0.456 0.44,-0.915 0.649,-1.376 l 0.305,-0.693 0.218,-0.515 c 0.3,-0.722 0.522,-1.322 0.629,-1.622 0.199,-0.551 0.368,-0.975 0.544,-1.374 0.168,-0.403 0.367,-0.768 0.501,-1.258 l 14.205,-0.03 c 0.132,-0.035 0.274,0.033 0.361,0.145 0.086,0.108 0.138,0.229 0.176,0.346 0.075,0.238 0.102,0.472 0.104,0.711 0.001,0.24 -0.021,0.483 -0.093,0.754"
             style="fill:#231f20;fill-opacity:1;fill-rule:nonzero;stroke:none"
             id="path3024" /></g><g
           id="g3026"
           transform="translate(128.2251,231.8978)"><path
             d="m 0,0 c -57.891,0 -104.99,-47.098 -104.99,-104.99 0,-57.891 47.099,-104.989 104.99,-104.989 57.891,0 104.99,47.098 104.99,104.989 C 104.99,-47.098 57.891,0 0,0 m 0,-216.965 c -61.744,0 -111.975,50.232 -111.975,111.975 0,61.744 50.231,111.976 111.975,111.976 61.744,0 111.976,-50.232 111.976,-111.976 0,-61.743 -50.232,-111.975 -111.976,-111.975"
             style="fill:#f68712;fill-opacity:1;fill-rule:nonzero;stroke:none"
             id="path3028" /></g><g
           id="g3030"
           transform="translate(33.5224,146.4316)"><path
             d="M 0,0 2.239,7.955 19.869,2.993 21.725,9.586 27.995,7.821 23.9,-6.728 0,0 z"
             style="fill:#231f20;fill-opacity:1;fill-rule:nonzero;stroke:none"
             id="path3032" /></g><g
           id="g3034"
           transform="translate(62.0385,170.6479)"><path
             d="M 0,0 -4.576,0.911 -1.79,-2.832 0,0 z m -16.96,5.216 3.182,5.035 L 12.242,4.945 8.065,-1.663 5.74,-1.162 1.722,-7.518 3.172,-9.403 -1.005,-16.011 -16.96,5.216 z"
             style="fill:#231f20;fill-opacity:1;fill-rule:nonzero;stroke:none"
             id="path3036" /></g><g
           id="g3038"
           transform="translate(68.7768,203.1655)"><path
             d="m 0,0 12.156,8.139 3.624,-5.413 -5.567,-3.728 1.532,-2.289 5.475,3.666 3.438,-5.134 -5.475,-3.666 5.219,-7.795 -6.588,-4.411 L 0,0 z"
             style="fill:#231f20;fill-opacity:1;fill-rule:nonzero;stroke:none"
             id="path3040" /></g><g
           id="g3042"
           transform="translate(98.851,205.7978)"><path
             d="m 0,0 c 0.208,-0.689 0.535,-1.296 0.98,-1.823 0.445,-0.527 0.961,-0.948 1.549,-1.261 0.588,-0.315 1.224,-0.511 1.909,-0.589 0.685,-0.078 1.372,-0.013 2.061,0.196 0.688,0.209 1.296,0.536 1.823,0.98 0.526,0.445 0.947,0.961 1.261,1.55 0.314,0.587 0.51,1.224 0.588,1.909 0.078,0.684 0.013,1.371 -0.196,2.06 C 9.767,3.711 9.439,4.318 8.995,4.845 8.55,5.372 8.034,5.792 7.446,6.106 6.858,6.421 6.222,6.617 5.537,6.695 4.852,6.772 4.165,6.708 3.477,6.499 2.787,6.29 2.18,5.963 1.653,5.519 1.127,5.073 0.706,4.557 0.392,3.969 0.077,3.381 -0.119,2.745 -0.196,2.06 -0.274,1.375 -0.208,0.688 0,0 M -7.481,-2.267 C -8,-0.557 -8.163,1.157 -7.97,2.875 c 0.193,1.718 0.682,3.312 1.469,4.782 0.786,1.469 1.84,2.761 3.162,3.875 1.322,1.114 2.839,1.93 4.548,2.448 1.71,0.518 3.424,0.681 5.143,0.488 1.717,-0.193 3.312,-0.682 4.781,-1.468 1.47,-0.787 2.762,-1.841 3.876,-3.163 1.114,-1.322 1.929,-2.838 2.448,-4.548 0.518,-1.71 0.68,-3.424 0.488,-5.142 -0.193,-1.718 -0.682,-3.313 -1.468,-4.782 -0.787,-1.47 -1.841,-2.762 -3.163,-3.875 -1.323,-1.114 -2.838,-1.93 -4.548,-2.448 -1.71,-0.518 -3.425,-0.681 -5.142,-0.488 -1.719,0.192 -3.312,0.681 -4.782,1.468 -1.47,0.786 -2.762,1.84 -3.876,3.163 -1.114,1.321 -1.929,2.838 -2.447,4.548"
             style="fill:#231f20;fill-opacity:1;fill-rule:nonzero;stroke:none"
             id="path3044" /></g><g
           id="g3046"
           transform="translate(137.6181,214.4912)"><path
             d="M 0,0 C -0.422,0.422 -0.962,0.759 -1.618,1.009 -2.274,1.259 -2.925,1.403 -3.569,1.441 -4.288,1.484 -4.952,1.392 -5.562,1.167 -6.172,0.942 -6.707,0.613 -7.167,0.181 c -0.461,-0.433 -0.834,-0.964 -1.12,-1.594 -0.286,-0.629 -0.45,-1.316 -0.494,-2.059 -0.044,-0.743 0.051,-1.445 0.285,-2.105 0.235,-0.66 0.574,-1.234 1.018,-1.719 0.443,-0.487 0.973,-0.878 1.59,-1.176 0.617,-0.297 1.284,-0.467 2.002,-0.509 0.842,-0.05 1.62,0.084 2.336,0.402 0.714,0.318 1.338,0.773 1.87,1.363 l -2.229,0.132 0.306,5.202 9.551,-0.563 -0.487,-8.25 c -0.63,-0.983 -1.365,-1.865 -2.207,-2.648 -0.843,-0.783 -1.77,-1.443 -2.783,-1.98 -1.014,-0.536 -2.101,-0.933 -3.259,-1.187 -1.158,-0.255 -2.345,-0.346 -3.559,-0.275 -1.783,0.105 -3.448,0.539 -4.994,1.302 -1.546,0.762 -2.873,1.76 -3.981,2.994 -1.109,1.234 -1.956,2.663 -2.544,4.289 -0.588,1.626 -0.827,3.355 -0.719,5.189 0.105,1.783 0.526,3.449 1.264,4.997 0.738,1.547 1.705,2.876 2.902,3.986 1.196,1.11 2.589,1.96 4.178,2.55 1.588,0.59 3.274,0.832 5.058,0.728 1.387,-0.083 2.58,-0.29 3.58,-0.622 1,-0.333 1.836,-0.693 2.51,-1.081 C 3.701,7.103 4.356,6.629 4.874,6.126 L 0,0 z"
             style="fill:#231f20;fill-opacity:1;fill-rule:nonzero;stroke:none"
             id="path3048" /></g><g
           id="g3050"
           transform="translate(161.3271,199.0171)"><path
             d="M 0,0 0.198,4.662 -3.073,1.334 0,0 z m 2.554,17.56 5.463,-2.373 -1.252,-26.526 -7.171,3.114 0.138,2.375 -6.897,2.996 -1.641,-1.723 -7.17,3.114 18.53,19.023 z"
             style="fill:#231f20;fill-opacity:1;fill-rule:nonzero;stroke:none"
             id="path3052" /></g><g
           id="g3054"
           transform="translate(184.2597,205.5078)"><path
             d="m 0,0 6.628,-5.181 -15.29,-19.562 -6.629,5.181 L 0,0 z"
             style="fill:#231f20;fill-opacity:1;fill-rule:nonzero;stroke:none"
             id="path3056" /></g><g
           id="g3058"
           transform="translate(198.4804,193.8008)"><path
             d="m 0,0 3.954,-5.177 -3.446,-11.251 7.603,5.807 4.722,-6.183 -19.732,-15.07 -3.977,5.207 3.439,11.198 -7.574,-5.784 -4.721,6.183 L 0,0 z"
             style="fill:#231f20;fill-opacity:1;fill-rule:nonzero;stroke:none"
             id="path3060" /></g><g
           id="g3062"
           transform="translate(204.1337,150.001)"><path
             d="M 0,0 3.619,2.946 -1.042,3.184 0,0 z m 14.827,9.748 1.853,-5.661 -20.668,-16.673 -2.432,7.43 1.868,1.473 -2.339,7.146 -2.377,0.084 -2.431,7.43 26.526,-1.229 z"
             style="fill:#231f20;fill-opacity:1;fill-rule:nonzero;stroke:none"
             id="path3064" /></g><g
           id="g3066"
           transform="translate(62.2963,70.7134)"><path
             d="M 0,0 C 1.51,1.409 1.662,1.606 1.151,2.304 L 0.778,2.823 C 0.728,3.027 1.057,3.334 1.315,3.267 2.31,2.35 3.458,1.239 4.671,-0.062 5.856,-1.333 6.488,-2.31 6.834,-3.161 7.341,-4.394 7.399,-6.045 5.949,-7.398 3.497,-9.685 0.836,-7.552 0.097,-6.76 c -0.167,0.179 -0.292,0.314 -0.431,0.492 -0.037,0.19 0.175,0.443 0.362,0.422 1.546,-0.879 2.666,-0.31 3.772,0.722 1.107,1.032 1.773,2.716 0.518,4.062 -0.516,0.553 -0.709,0.43 -1.307,-0.128 l -6.31,-5.886 C -4.69,-8.373 -4.726,-8.574 -4.203,-9.344 l 0.372,-0.549 c 0.079,-0.234 -0.266,-0.554 -0.509,-0.476 -0.751,0.866 -1.419,1.613 -2.089,2.331 -0.669,0.718 -1.353,1.422 -2.136,2.202 -0.064,0.248 0.252,0.599 0.48,0.504 l 0.465,-0.349 c 0.747,-0.561 0.936,-0.553 2.327,0.744 L 0,0 z"
             style="fill:#231f20;fill-opacity:1;fill-rule:nonzero;stroke:none"
             id="path3068" /></g><g
           id="g3070"
           transform="translate(67.7495,55.7309)"><path
             d="m 0,0 c 0.229,0.235 0.254,0.295 0.132,0.373 -0.777,0.508 -1.608,0.765 -2.236,0.037 -0.427,-0.496 -0.444,-1.236 -0.011,-1.61 0.48,-0.414 0.814,-0.215 1.243,0.252 L 0,0 z M 1.512,-2.005 C 0.542,-3.004 0.75,-3.67 1.061,-3.938 1.246,-4.098 1.441,-4.185 1.809,-4.259 1.922,-4.41 1.854,-4.676 1.688,-4.775 1.289,-4.862 0.053,-4.823 -0.83,-4.062 c -0.542,0.466 -0.722,0.946 -0.834,1.663 -0.028,0.186 -0.063,0.271 -0.14,0.337 -0.078,0.067 -0.224,0.085 -0.472,0.111 -0.453,0.039 -1.171,0.144 -1.744,0.639 -0.898,0.774 -1.268,2.038 -0.333,3.122 0.681,0.79 1.575,0.855 2.999,0.221 C -0.605,1.71 -0.064,1.46 0.476,1.21 0.822,1.047 0.993,1.089 1.115,1.199 1.277,1.356 1.439,1.514 1.6,1.699 2.107,2.288 2.516,3.231 1.85,3.806 1.478,4.126 0.966,4.189 0.283,3.617 0.039,3.396 -0.174,3.337 -0.407,3.349 -0.787,3.378 -1.551,3.713 -1.83,3.953 -2.093,4.181 -2.039,4.431 -1.852,4.647 -1.505,5.051 -0.706,5.226 -0.081,5.2 0.807,5.164 2.236,4.85 3.336,3.901 4.637,2.779 4.835,1.475 3.382,-0.054 l -1.87,-1.951 z"
             style="fill:#231f20;fill-opacity:1;fill-rule:nonzero;stroke:none"
             id="path3072" /></g><g
           id="g3074"
           transform="translate(79.7417,47.0649)"><path
             d="m 0,0 c 0.189,0.268 0.204,0.331 0.072,0.389 -0.848,0.379 -1.709,0.502 -2.214,-0.316 -0.343,-0.556 -0.244,-1.291 0.243,-1.592 0.539,-0.333 0.837,-0.084 1.188,0.445 L 0,0 z m 1.808,-1.741 c -0.8,-1.14 -0.489,-1.765 -0.141,-1.98 0.208,-0.129 0.415,-0.183 0.79,-0.199 0.135,-0.131 0.11,-0.404 -0.039,-0.528 -0.38,-0.151 -1.606,-0.306 -2.597,0.306 -0.609,0.376 -0.863,0.821 -1.086,1.511 -0.057,0.18 -0.105,0.258 -0.192,0.312 -0.087,0.053 -0.234,0.048 -0.483,0.034 -0.453,-0.033 -1.179,-0.041 -1.823,0.356 -1.008,0.623 -1.572,1.812 -0.82,3.03 0.548,0.886 1.42,1.093 2.926,0.691 C -0.867,1.593 -0.294,1.432 0.279,1.27 0.646,1.163 0.808,1.231 0.912,1.359 1.047,1.54 1.183,1.721 1.312,1.93 1.72,2.591 1.975,3.587 1.227,4.049 0.809,4.307 0.293,4.289 -0.291,3.616 -0.497,3.359 -0.698,3.267 -0.93,3.242 c -0.379,-0.03 -1.186,0.18 -1.499,0.373 -0.296,0.183 -0.282,0.439 -0.132,0.682 0.279,0.452 1.04,0.751 1.662,0.824 C -0.017,5.226 1.444,5.14 2.679,4.377 4.14,3.475 4.541,2.218 3.348,0.48 l -1.54,-2.221 z"
             style="fill:#231f20;fill-opacity:1;fill-rule:nonzero;stroke:none"
             id="path3076" /></g><g
           id="g3078"
           transform="translate(86.0039,45.9009)"><path
             d="M 0,0 C 0.362,0.733 0.471,0.953 0.23,1.346 L 0.055,1.638 C -0.019,1.811 0.144,2.141 0.327,2.188 1.288,2.01 2.798,1.881 3.547,1.967 3.694,1.895 3.777,1.785 3.796,1.639 3.579,1.29 3.415,1.052 3.333,0.887 3.271,0.758 3.28,0.685 3.409,0.576 4.058,0.644 4.888,0.986 5.658,0.606 6.154,0.362 6.477,-0.276 6.133,-0.974 5.717,-1.817 4.958,-1.876 4.371,-1.587 4.115,-1.46 3.949,-1.241 3.819,-0.903 3.569,-0.347 3.413,-0.247 3.303,-0.193 3.046,-0.066 2.755,-0.425 2.412,-1.121 L 1.036,-3.909 C 0.403,-5.193 0.404,-5.376 0.982,-5.729 l 0.56,-0.345 c 0.092,-0.183 -0.116,-0.605 -0.335,-0.633 -0.863,0.471 -1.587,0.851 -2.449,1.276 -0.752,0.371 -1.569,0.751 -2.192,1.013 -0.11,0.191 0.098,0.613 0.299,0.651 l 0.366,-0.135 c 0.633,-0.244 0.788,-0.115 1.421,1.169 L 0,0 z"
             style="fill:#231f20;fill-opacity:1;fill-rule:nonzero;stroke:none"
             id="path3080" /></g><g
           id="g3082"
           transform="translate(96.4887,43.0268)"><path
             d="m 0,0 c -0.248,0.098 -0.274,0.086 -0.439,-0.333 l -1.126,-2.855 c -0.421,-1.065 -0.886,-2.245 0.446,-2.77 0.266,-0.104 0.623,-0.092 0.911,-0.029 0.168,-0.133 0.2,-0.387 0.072,-0.601 -0.758,-0.36 -1.996,-0.487 -3.176,-0.022 -1.579,0.623 -1.771,1.755 -1.275,3.01 l 1.674,4.244 c 0.158,0.399 0.154,0.444 -0.189,0.58 l -0.589,0.232 c -0.18,0.159 -0.087,0.562 0.118,0.635 0.673,-0.024 1.341,0.109 1.917,0.233 0.44,0.113 1.073,0.324 1.994,0.929 0.163,0.023 0.498,-0.131 0.533,-0.32 L 0.308,1.505 C 0.166,1.144 0.177,1.117 0.52,0.982 L 2.213,0.314 C 2.278,0.2 2.29,0.063 2.223,-0.107 2.14,-0.317 1.948,-0.637 1.712,-0.676 L 0,0 z"
             style="fill:#231f20;fill-opacity:1;fill-rule:nonzero;stroke:none"
             id="path3084" /></g><g
           id="g3086"
           transform="translate(102.9814,39.4722)"><path
             d="M 0,0 C 0.274,-0.082 0.6,-0.136 0.856,-0.062 0.972,-0.033 1.069,0.151 1.127,0.348 1.32,0.994 1.076,1.536 0.409,1.734 -0.415,1.979 -1.354,1.405 -1.54,0.777 -1.622,0.503 -1.353,0.401 -0.726,0.215 L 0,0 z m -1.551,-0.479 c -0.45,0.134 -0.501,0.107 -0.595,-0.207 -0.437,-1.47 0.079,-3.181 1.902,-3.723 0.549,-0.163 1.329,-0.268 2.127,0.477 0.227,-0.025 0.475,-0.269 0.376,-0.602 -1.3,-1.428 -2.92,-1.566 -4.096,-1.216 -2.647,0.787 -3.525,3.075 -2.89,5.213 0.735,2.471 3.09,3.861 5.541,3.133 C 2.854,1.989 3.561,0.35 3.112,-1.16 3.001,-1.533 2.822,-1.778 2.214,-1.598 l -3.765,1.119 z"
             style="fill:#231f20;fill-opacity:1;fill-rule:nonzero;stroke:none"
             id="path3088" /></g><g
           id="g3090"
           transform="translate(106.3828,32.9712)"><path
             d="M 0,0 C -0.14,0.445 -0.087,1.436 0.134,2.33 0.295,2.507 0.74,2.438 0.824,2.233 0.919,1.358 1.444,0.022 2.466,-0.183 3.068,-0.304 3.582,-0.031 3.718,0.65 3.867,1.393 3.311,1.942 2.697,2.42 1.615,3.264 0.898,4.158 1.14,5.361 1.49,7.105 3.123,7.653 4.847,7.308 5.87,7.102 6.72,6.66 6.908,6.455 7.02,5.974 6.959,5.151 6.806,4.39 6.682,4.186 6.18,4.286 6.088,4.45 5.921,5.694 5.504,6.216 4.842,6.349 4.261,6.466 3.771,6.209 3.663,5.668 3.57,5.207 3.875,4.749 4.688,4.127 5.918,3.191 6.591,2.18 6.33,0.877 5.951,-0.903 4.246,-1.5 2.361,-1.121 1.218,-0.892 0.457,-0.53 0,0"
             style="fill:#231f20;fill-opacity:1;fill-rule:nonzero;stroke:none"
             id="path3092" /></g><g
           id="g3094"
           transform="translate(118.9423,33.9692)"><path
             d="m 0,0 c 0.055,0.323 0.041,0.387 -0.104,0.381 -0.928,-0.026 -1.758,-0.288 -1.858,-1.244 -0.068,-0.652 0.339,-1.27 0.909,-1.329 0.631,-0.067 0.791,0.287 0.878,0.915 L 0,0 z M 1.289,6.198 C 1.222,5.959 1.026,5.855 0.746,5.927 l -2.571,3.128 c -0.237,0.292 -0.392,0.576 -0.369,0.799 0.024,0.224 0.23,0.428 0.627,0.675 0.371,0.207 0.603,0.266 0.827,0.242 0.203,-0.021 0.392,-0.185 0.566,-0.676 L 1.289,6.198 z M 2.385,-0.785 C 2.159,-2.16 2.71,-2.588 3.117,-2.631 3.361,-2.656 3.571,-2.616 3.916,-2.468 4.094,-2.527 4.19,-2.784 4.11,-2.961 3.832,-3.261 2.795,-3.934 1.635,-3.812 0.923,-3.737 0.502,-3.446 0.001,-2.92 c -0.129,0.137 -0.206,0.186 -0.308,0.196 -0.101,0.011 -0.232,-0.057 -0.45,-0.178 -0.394,-0.226 -1.045,-0.549 -1.798,-0.47 -1.179,0.124 -2.203,0.951 -2.053,2.375 0.108,1.038 0.805,1.601 2.337,1.893 0.799,0.164 1.385,0.266 1.972,0.37 C 0.078,1.328 0.194,1.46 0.232,1.621 0.276,1.843 0.319,2.063 0.345,2.308 0.426,3.081 0.224,4.089 -0.651,4.181 -1.139,4.232 -1.596,3.992 -1.83,3.133 -1.905,2.812 -2.046,2.642 -2.245,2.519 -2.573,2.326 -3.392,2.166 -3.758,2.204 -4.104,2.24 -4.202,2.478 -4.172,2.762 c 0.055,0.529 0.611,1.129 1.14,1.464 0.75,0.476 2.104,1.033 3.548,0.881 C 2.224,4.928 3.131,3.969 2.81,1.885 l -0.425,-2.67 z"
             style="fill:#231f20;fill-opacity:1;fill-rule:nonzero;stroke:none"
             id="path3096" /></g><g
           id="g3098"
           transform="translate(132.7607,41.896)"><path
             d="m 0,0 c 0.033,-0.981 -0.706,-1.518 -1.482,-1.543 -0.899,-0.03 -1.451,0.564 -1.479,1.402 -0.03,0.899 0.665,1.516 1.482,1.543 C -0.62,1.431 -0.027,0.817 0,0 m 0.147,-9.241 c 0.048,-1.43 0.136,-1.612 0.812,-1.65 l 0.39,-0.028 c 0.168,-0.117 0.183,-0.587 0.004,-0.716 -0.717,0.018 -1.514,0.011 -2.455,-0.02 -0.919,-0.032 -1.776,-0.08 -2.449,-0.144 -0.188,0.116 -0.204,0.586 -0.044,0.714 l 0.387,0.054 c 0.671,0.084 0.747,0.27 0.699,1.701 l -0.104,3.085 c -0.027,0.817 -0.035,1.062 -0.432,1.295 l -0.292,0.174 c -0.147,0.118 -0.16,0.485 -0.02,0.613 0.951,0.298 2.383,0.898 2.984,1.286 0.163,0.006 0.288,-0.051 0.373,-0.171 -0.02,-0.614 -0.01,-1.514 0.021,-2.433 l 0.126,-3.76 z"
             style="fill:#231f20;fill-opacity:1;fill-rule:nonzero;stroke:none"
             id="path3100" /></g><g
           id="g3102"
           transform="translate(144.5205,37.3804)"><path
             d="M 0,0 C 0.282,0.049 0.598,0.146 0.795,0.324 0.885,0.402 0.891,0.61 0.855,0.812 0.741,1.478 0.281,1.854 -0.404,1.736 -1.251,1.591 -1.837,0.659 -1.726,0.014 c 0.049,-0.283 0.334,-0.253 0.98,-0.142 L 0,0 z m -1.178,-1.116 c -0.464,-0.08 -0.497,-0.127 -0.441,-0.45 0.261,-1.512 1.482,-2.816 3.357,-2.493 0.565,0.098 1.31,0.351 1.694,1.372 0.214,0.079 0.545,-0.031 0.604,-0.374 -0.531,-1.855 -1.922,-2.697 -3.131,-2.906 -2.721,-0.47 -4.523,1.192 -4.902,3.389 -0.439,2.539 1.055,4.831 3.574,5.266 C 1.674,3.05 3.035,1.895 3.304,0.342 3.369,-0.041 3.317,-0.34 2.692,-0.448 l -3.87,-0.668 z"
             style="fill:#231f20;fill-opacity:1;fill-rule:nonzero;stroke:none"
             id="path3104" /></g><g
           id="g3106"
           transform="translate(155.2734,42.4204)"><path
             d="M 0,0 C 0.316,-0.146 0.55,-0.38 0.696,-0.912 0.858,-1.503 0.729,-2.111 0.492,-2.177 0.394,-2.203 0.205,-2.213 0.149,-2.164 c -0.768,0.637 -1.726,1.115 -2.436,0.92 -1.281,-0.352 -1.57,-2 -1.197,-3.36 0.428,-1.558 1.867,-2.859 3.68,-2.361 0.73,0.2 1.256,0.6 1.49,1.448 0.231,0.085 0.544,0.023 0.631,-0.293 -0.163,-1.104 -1.037,-2.553 -2.91,-3.068 -2.483,-0.683 -4.634,0.508 -5.273,2.834 -0.77,2.8 1.043,5.078 3.704,5.81 C -1.491,-0.05 -0.586,0.051 0,0"
             style="fill:#231f20;fill-opacity:1;fill-rule:nonzero;stroke:none"
             id="path3108" /></g><g
           id="g3110"
           transform="translate(160.6738,40.4018)"><path
             d="M 0,0 C 0.792,-1.996 2,-3.211 3.103,-2.774 4.186,-2.345 4.058,-0.966 3.359,0.738 2.609,2.574 1.444,3.961 0.36,3.531 -0.477,3.199 -0.821,2.072 0,0 M -2.571,-1.504 C -3.669,1.208 -2.116,3.562 0.128,4.451 2.371,5.34 4.93,4.771 5.992,2.09 7.093,-0.687 5.578,-2.805 3.24,-3.731 0.978,-4.629 -1.513,-4.12 -2.571,-1.504"
             style="fill:#231f20;fill-opacity:1;fill-rule:nonzero;stroke:none"
             id="path3112" /></g><g
           id="g3114"
           transform="translate(165.6679,50.1684)"><path
             d="m 0,0 c -0.371,0.729 -0.473,0.931 -0.948,0.964 l -0.403,0.025 c -0.183,0.044 -0.35,0.372 -0.278,0.547 0.692,0.58 1.564,1.573 2.272,2.438 0.109,0.055 0.254,0.084 0.374,0.03 C 1.36,3.237 1.731,2.463 2.314,1.313 l 4.131,-8.131 c 0.649,-1.277 0.796,-1.386 1.471,-1.134 l 0.329,0.12 c 0.201,-0.035 0.414,-0.454 0.306,-0.647 -0.62,-0.269 -1.396,-0.64 -2.216,-1.057 -0.784,-0.399 -1.541,-0.806 -2.16,-1.166 -0.22,0.026 -0.434,0.445 -0.343,0.629 L 4.16,-9.86 c 0.573,0.36 0.564,0.561 -0.085,1.838 L 0,0 z"
             style="fill:#231f20;fill-opacity:1;fill-rule:nonzero;stroke:none"
             id="path3116" /></g><g
           id="g3118"
           transform="translate(175.9472,47.8071)"><path
             d="M 0,0 C 1.145,-1.816 2.555,-2.79 3.558,-2.157 4.544,-1.537 4.165,-0.205 3.167,1.342 2.093,3.009 0.693,4.157 -0.293,3.536 -1.055,3.057 -1.187,1.886 0,0 M -2.252,-1.949 C -3.827,0.514 -2.732,3.112 -0.69,4.397 1.352,5.684 3.97,5.593 5.506,3.152 7.097,0.626 5.997,-1.733 3.868,-3.073 1.81,-4.37 -0.73,-4.326 -2.252,-1.949 M -0.61,5.729 C -0.515,5.499 -0.604,5.298 -0.869,5.18 l -3.954,0.869 c -0.366,0.083 -0.663,0.21 -0.783,0.4 -0.121,0.191 -0.084,0.479 0.075,0.917 0.163,0.393 0.309,0.582 0.5,0.702 0.173,0.109 0.423,0.097 0.863,-0.181 L -0.61,5.729 z"
             style="fill:#231f20;fill-opacity:1;fill-rule:nonzero;stroke:none"
             id="path3120" /></g><g
           id="g3122"
           transform="translate(189.0585,50.2309)"><path
             d="M 0,0 C -0.431,-0.347 -0.672,-0.698 -0.726,-0.925 -0.77,-1.196 -0.667,-1.455 -0.5,-1.662 0.371,-2.745 1.748,-2.793 3.006,-1.78 4.01,-0.973 4.281,0.06 3.666,0.824 2.923,1.748 1.943,1.563 1.067,0.858 L 0,0 z m -2.252,3.516 c 0.494,0.397 0.536,1.192 -0.399,2.355 -1.038,1.29 -1.988,1.525 -2.561,1.063 -0.494,-0.398 -0.587,-1.26 0.284,-2.343 0.975,-1.211 2.039,-1.588 2.676,-1.075 m 1.194,6.996 c 0.189,-0.006 0.323,-0.108 0.464,-0.283 0.205,-0.254 0.356,-0.606 0.274,-0.83 L -1.499,8.451 C -1.352,8.333 -1.221,8.203 -1.003,7.932 0.01,6.674 0.491,4.542 -2.025,2.517 -2.28,2.312 -2.529,2.164 -2.717,2.039 -2.825,1.847 -2.834,1.63 -2.681,1.438 c 0.283,-0.35 0.796,-0.303 1.275,0.081 0.541,0.436 1.169,0.993 1.918,1.595 1.194,0.962 2.725,1.668 4.019,0.06 0.808,-1.004 0.92,-2.383 0.502,-3.56 -0.43,-1.16 -1.3,-2.2 -2.223,-2.943 -2.294,-1.846 -3.969,-1.461 -4.763,-0.474 -0.308,0.383 -0.275,0.83 -0.132,1.207 0.165,0.448 0.285,0.886 0.384,1.122 0.101,0.265 -0.011,0.307 -0.164,0.236 -0.743,-0.283 -1.565,-0.077 -2.013,0.479 -0.102,0.128 -0.173,0.281 -0.157,0.425 0.215,0.646 0.398,1.396 0.417,1.569 0.054,0.227 0.04,0.373 -0.155,0.453 -1.053,-0.322 -2.226,-0.006 -3.007,0.965 -1.065,1.323 -1.029,3.399 1.042,5.065 0.94,0.756 2.003,1.165 2.848,1.32 l 1.832,1.474 z"
             style="fill:#231f20;fill-opacity:1;fill-rule:nonzero;stroke:none"
             id="path3124" /></g><g
           id="g3126"
           transform="translate(194.6513,59.8833)"><path
             d="m 0,0 c 0.992,-1.031 1.179,-1.107 1.708,-0.684 l 0.309,0.24 C 2.22,-0.419 2.546,-0.758 2.498,-0.975 1.953,-1.44 1.364,-1.979 0.687,-2.631 0.023,-3.269 -0.582,-3.879 -1.04,-4.376 c -0.218,-0.039 -0.544,0.3 -0.511,0.501 l 0.252,0.299 c 0.444,0.513 0.375,0.702 -0.617,1.733 l -2.141,2.226 c -0.566,0.59 -0.737,0.766 -1.187,0.674 L -5.578,0.991 c -0.188,-0.011 -0.443,0.255 -0.425,0.443 0.509,0.858 1.172,2.262 1.359,2.952 0.119,0.114 0.249,0.155 0.393,0.123 0.397,-0.47 1.005,-1.134 1.643,-1.797 L 0,0 z m -6.289,6.776 c 0.681,-0.708 0.489,-1.6 -0.07,-2.139 -0.65,-0.624 -1.457,-0.55 -2.039,0.054 -0.623,0.649 -0.519,1.572 0.071,2.14 0.619,0.595 1.471,0.535 2.038,-0.055"
             style="fill:#231f20;fill-opacity:1;fill-rule:nonzero;stroke:none"
             id="path3128" /></g><g
           id="g3130"
           transform="translate(197.0263,70.9507)"><path
             d="M 0,0 C 0.345,0.05 0.667,-0.017 1.081,-0.383 1.541,-0.79 1.765,-1.37 1.602,-1.554 1.534,-1.63 1.382,-1.741 1.309,-1.731 c -0.993,0.113 -2.057,-0.01 -2.545,-0.562 -0.881,-0.996 -0.221,-2.535 0.836,-3.47 1.21,-1.07 3.127,-1.373 4.374,0.037 0.501,0.567 0.723,1.189 0.455,2.027 0.146,0.198 0.444,0.317 0.689,0.1 C 5.586,-4.613 5.646,-6.305 4.358,-7.76 2.651,-9.69 0.199,-9.87 -1.608,-8.271 -3.784,-6.347 -3.513,-3.447 -1.684,-1.378 -1.223,-0.857 -0.52,-0.278 0,0"
             style="fill:#231f20;fill-opacity:1;fill-rule:nonzero;stroke:none"
             id="path3132" /></g><g
           id="g3134"
           transform="translate(128.2251,241.6048)"><path
             d="m 0,0 c -63.244,0 -114.697,-51.453 -114.697,-114.697 0,-63.244 51.453,-114.696 114.697,-114.696 63.244,0 114.697,51.452 114.697,114.696 C 114.697,-51.453 63.244,0 0,0 m 0,-231.14 c -64.207,0 -116.443,52.237 -116.443,116.443 0,64.207 52.236,116.443 116.443,116.443 64.207,0 116.443,-52.236 116.443,-116.443 C 116.443,-178.903 64.207,-231.14 0,-231.14"
             style="fill:#f68712;fill-opacity:1;fill-rule:nonzero;stroke:none"
             id="path3136" /></g><g
           id="g3138"
           transform="translate(34.0283,120.2798)"><path
             d="m 0,0 c 0,0.319 -0.064,0.462 -0.176,0.622 -0.239,0.336 -0.718,0.67 -1.341,0.67 -1.452,0 -2.202,-1.26 -2.202,-2.649 0,-1.453 0.814,-2.825 2.378,-2.825 0.431,0 0.974,0.192 1.229,0.447 C -0.016,-3.639 0,-3.4 0,-3.145 L 0,0 z m 1.181,-2.395 c 0,-1.26 0.016,-1.851 0.463,-1.851 0.175,0 0.447,0.08 0.686,0.16 0.112,-0.032 0.128,-0.431 -0.016,-0.511 -0.67,-0.096 -1.66,-0.335 -2.106,-0.51 -0.097,0 -0.176,0.047 -0.176,0.127 l 0,0.272 c 0,0.239 0,0.43 -0.032,0.494 l -0.064,0 c -0.702,-0.479 -1.245,-0.734 -2.011,-0.734 -1.772,0 -2.953,1.388 -2.953,3.064 0,2.235 1.692,3.671 3.862,3.671 0.543,0 0.895,-0.079 1.07,-0.143 0.08,0 0.096,0.095 0.096,0.223 l 0,2.41 c 0,0.942 -0.016,1.037 -0.495,1.325 l -0.16,0.096 c -0.079,0.048 -0.079,0.271 0,0.319 0.4,0.128 1.15,0.367 1.724,0.67 0.064,0 0.128,-0.032 0.16,-0.096 C 1.213,6.113 1.181,5.314 1.181,4.612 l 0,-7.007 z"
             style="fill:#231f20;fill-opacity:1;fill-rule:nonzero;stroke:none"
             id="path3140" /></g><g
           id="g3142"
           transform="translate(39.6264,120.1201)"><path
             d="m 0,0 c 1.181,0 1.532,0.063 1.66,0.16 0.048,0.031 0.096,0.095 0.096,0.303 0,0.447 -0.303,1.005 -1.229,1.005 -0.942,0 -1.756,-0.862 -1.772,-1.388 0,-0.032 0,-0.08 0.112,-0.08 L 0,0 z m -0.99,-0.479 c -0.415,0 -0.43,-0.032 -0.43,-0.431 0,-1.612 0.941,-2.985 2.649,-2.985 0.527,0 0.974,0.16 1.468,0.783 0.16,0.048 0.272,-0.049 0.288,-0.192 -0.527,-1.085 -1.676,-1.485 -2.506,-1.485 -1.038,0 -1.852,0.448 -2.314,1.054 -0.479,0.623 -0.671,1.373 -0.671,2.075 0,1.963 1.293,3.607 3.208,3.607 1.373,0 2.267,-0.942 2.267,-1.899 0,-0.224 -0.032,-0.351 -0.064,-0.415 C 2.857,-0.463 2.633,-0.479 1.963,-0.479 l -2.953,0 z"
             style="fill:#231f20;fill-opacity:1;fill-rule:nonzero;stroke:none"
             id="path3144" /></g><g
           id="g3146"
           transform="translate(47.2524,121.7798)"><path
             d="m 0,0 c 0.144,-0.351 0.255,-0.862 0.255,-1.293 -0.063,-0.111 -0.303,-0.144 -0.382,-0.048 -0.272,0.703 -0.75,1.166 -1.405,1.166 -0.622,0 -1.022,-0.4 -1.022,-0.974 0,-0.655 0.671,-1.006 1.229,-1.325 0.846,-0.479 1.628,-1.021 1.628,-2.154 0,-1.214 -1.117,-1.82 -2.298,-1.82 -0.75,0 -1.309,0.159 -1.708,0.479 -0.128,0.303 -0.223,1.085 -0.191,1.612 0.08,0.096 0.287,0.111 0.367,0.016 0.271,-0.878 0.782,-1.644 1.692,-1.644 0.574,0 1.069,0.335 1.069,1.021 0,0.735 -0.638,1.133 -1.229,1.469 -0.925,0.526 -1.58,1.085 -1.58,1.963 0,1.165 0.958,1.819 2.171,1.819 0.67,0 1.26,-0.159 1.404,-0.287"
             style="fill:#231f20;fill-opacity:1;fill-rule:nonzero;stroke:none"
             id="path3148" /></g><g
           id="g3150"
           transform="translate(57.1918,120.2798)"><path
             d="m 0,0 c 0,0.319 -0.064,0.462 -0.176,0.622 -0.239,0.336 -0.718,0.67 -1.341,0.67 -1.452,0 -2.202,-1.26 -2.202,-2.649 0,-1.453 0.814,-2.825 2.378,-2.825 0.431,0 0.974,0.192 1.229,0.447 C -0.016,-3.639 0,-3.4 0,-3.145 L 0,0 z m 1.181,-2.395 c 0,-1.26 0.016,-1.851 0.463,-1.851 0.175,0 0.447,0.08 0.686,0.16 0.112,-0.032 0.128,-0.431 -0.016,-0.511 -0.67,-0.096 -1.66,-0.335 -2.106,-0.51 -0.097,0 -0.176,0.047 -0.176,0.127 l 0,0.272 c 0,0.239 0,0.43 -0.032,0.494 l -0.064,0 c -0.702,-0.479 -1.245,-0.734 -2.011,-0.734 -1.772,0 -2.953,1.388 -2.953,3.064 0,2.235 1.692,3.671 3.862,3.671 0.543,0 0.895,-0.079 1.07,-0.143 0.08,0 0.096,0.095 0.096,0.223 l 0,2.41 c 0,0.942 -0.016,1.037 -0.495,1.325 l -0.16,0.096 c -0.079,0.048 -0.079,0.271 0,0.319 0.4,0.128 1.15,0.367 1.724,0.67 0.064,0 0.128,-0.032 0.16,-0.096 C 1.213,6.113 1.181,5.314 1.181,4.612 l 0,-7.007 z"
             style="fill:#231f20;fill-opacity:1;fill-rule:nonzero;stroke:none"
             id="path3152" /></g><g
           id="g3154"
           transform="translate(62.79,120.1201)"><path
             d="m 0,0 c 1.181,0 1.532,0.063 1.66,0.16 0.048,0.031 0.096,0.095 0.096,0.303 0,0.447 -0.303,1.005 -1.229,1.005 -0.942,0 -1.756,-0.862 -1.772,-1.388 0,-0.032 0,-0.08 0.112,-0.08 L 0,0 z m -0.99,-0.479 c -0.414,0 -0.43,-0.032 -0.43,-0.431 0,-1.612 0.941,-2.985 2.649,-2.985 0.527,0 0.974,0.16 1.468,0.783 0.16,0.048 0.272,-0.049 0.288,-0.192 -0.527,-1.085 -1.676,-1.485 -2.506,-1.485 -1.038,0 -1.852,0.448 -2.314,1.054 -0.479,0.623 -0.671,1.373 -0.671,2.075 0,1.963 1.293,3.607 3.208,3.607 1.373,0 2.267,-0.942 2.267,-1.899 0,-0.224 -0.032,-0.351 -0.064,-0.415 C 2.857,-0.463 2.633,-0.479 1.963,-0.479 l -2.953,0 z"
             style="fill:#231f20;fill-opacity:1;fill-rule:nonzero;stroke:none"
             id="path3156" /></g><g
           id="g3158"
           transform="translate(199.5957,116.5454)"><path
             d="M 0,0 C 0.733,0 1.213,0.096 1.5,0.351 1.803,0.622 1.915,0.83 2.011,1.005 2.122,1.053 2.298,1.005 2.361,0.91 2.154,0.111 1.867,-0.718 1.628,-1.038 0.974,-1.006 0.303,-0.99 -0.432,-0.99 l -2.314,0 c -0.894,0 -1.42,-0.016 -1.772,-0.048 -0.031,0.017 -0.111,0.08 -0.111,0.208 0,0.048 0.08,0.112 0.176,0.175 0.734,0.479 1.261,1.022 2.441,2.299 1.054,1.133 2.283,2.681 2.283,4.389 0,1.452 -0.703,2.33 -1.996,2.33 -0.957,0 -1.643,-0.654 -2.074,-1.596 -0.143,-0.08 -0.383,0 -0.383,0.208 0.511,1.404 1.772,2.25 3.208,2.25 1.596,0 2.633,-1.069 2.633,-2.601 0,-0.99 -0.463,-2.075 -1.707,-3.512 L -1.021,1.995 C -2.331,0.495 -2.475,0.239 -2.475,0.144 -2.475,0.032 -2.395,0 -1.979,0 L 0,0 z"
             style="fill:#231f20;fill-opacity:1;fill-rule:nonzero;stroke:none"
             id="path3160" /></g><g
           id="g3162"
           transform="translate(204.6347,120.5513)"><path
             d="M 0,0 C 0,-1.5 0.128,-4.74 1.884,-4.74 3.64,-4.74 3.768,-1.5 3.768,0 3.768,1.5 3.64,4.74 1.884,4.74 0.128,4.74 0,1.5 0,0 m 5.187,0 c 0,-2.506 -0.973,-5.219 -3.303,-5.219 -2.33,0 -3.304,2.713 -3.304,5.219 0,2.41 0.974,5.219 3.304,5.219 2.33,0 3.303,-2.809 3.303,-5.219"
             style="fill:#231f20;fill-opacity:1;fill-rule:nonzero;stroke:none"
             id="path3164" /></g><g
           id="g3166"
           transform="translate(214.0166,122.9297)"><path
             d="M 0,0 C 0,1.085 -0.048,1.436 -0.767,1.5 L -1.532,1.564 C -1.66,1.628 -1.676,1.851 -1.549,1.915 -0.208,2.154 0.67,2.569 1.085,2.841 1.148,2.841 1.213,2.809 1.244,2.761 1.213,2.474 1.181,1.676 1.181,0.766 l 0,-6.193 c 0,-1.229 0.032,-1.5 0.686,-1.548 l 0.67,-0.048 c 0.096,-0.096 0.08,-0.351 -0.031,-0.399 -0.623,0.032 -1.341,0.048 -1.9,0.048 -0.575,0 -1.293,-0.016 -1.916,-0.048 -0.111,0.048 -0.127,0.303 -0.031,0.399 l 0.654,0.048 C -0.017,-6.927 0,-6.656 0,-5.427 L 0,0 z"
             style="fill:#231f20;fill-opacity:1;fill-rule:nonzero;stroke:none"
             id="path3168" /></g><g
           id="g3170"
           transform="translate(223.5253,116.5454)"><path
             d="M 0,0 C 0.733,0 1.213,0.096 1.5,0.351 1.803,0.622 1.915,0.83 2.011,1.005 2.122,1.053 2.298,1.005 2.361,0.91 2.154,0.111 1.867,-0.718 1.628,-1.038 0.974,-1.006 0.303,-0.99 -0.432,-0.99 l -2.314,0 c -0.894,0 -1.42,-0.016 -1.772,-0.048 -0.031,0.017 -0.111,0.08 -0.111,0.208 0,0.048 0.08,0.112 0.176,0.175 0.734,0.479 1.261,1.022 2.441,2.299 1.054,1.133 2.283,2.681 2.283,4.389 0,1.452 -0.703,2.33 -1.996,2.33 -0.957,0 -1.643,-0.654 -2.074,-1.596 -0.143,-0.08 -0.383,0 -0.383,0.208 0.511,1.404 1.772,2.25 3.208,2.25 1.596,0 2.633,-1.069 2.633,-2.601 0,-0.99 -0.463,-2.075 -1.707,-3.512 L -1.021,1.995 C -2.331,0.495 -2.475,0.239 -2.475,0.144 -2.475,0.032 -2.395,0 -1.979,0 L 0,0 z"
             style="fill:#231f20;fill-opacity:1;fill-rule:nonzero;stroke:none"
             id="path3172" /></g></g></g></g></svg>