<?xml version="1.0" encoding="UTF-8" standalone="no"?>
<!-- Created with Inkscape (http://www.inkscape.org/) -->

<svg
   xmlns:dc="http://purl.org/dc/elements/1.1/"
   xmlns:cc="http://creativecommons.org/ns#"
   xmlns:rdf="http://www.w3.org/1999/02/22-rdf-syntax-ns#"
   xmlns:svg="http://www.w3.org/2000/svg"
   xmlns="http://www.w3.org/2000/svg"
   xmlns:sodipodi="http://sodipodi.sourceforge.net/DTD/sodipodi-0.dtd"
   xmlns:inkscape="http://www.inkscape.org/namespaces/inkscape"
   width="744.09448819"
   height="1052.3622047"
   id="svg2"
   version="1.1"
   inkscape:version="0.48.4 r9939"
   sodipodi:docname="New document 1">
  <defs
     id="defs4">
    <clipPath
       id="clipPath3037"
       clipPathUnits="userSpaceOnUse">
      <path
         id="path3039"
         d="m 0,612.288 612.288,0 L 612.288,0 0,0 0,612.288 z" />
    </clipPath>
  </defs>
  <sodipodi:namedview
     id="base"
     pagecolor="#ffffff"
     bordercolor="#666666"
     borderopacity="1.0"
     inkscape:pageopacity="0.0"
     inkscape:pageshadow="2"
     inkscape:zoom="0.35"
     inkscape:cx="375"
     inkscape:cy="520"
     inkscape:document-units="px"
     inkscape:current-layer="layer1"
     showgrid="false"
     inkscape:window-width="513"
     inkscape:window-height="406"
     inkscape:window-x="499"
     inkscape:window-y="142"
     inkscape:window-maximized="0" />
  <metadata
     id="metadata7">
    <rdf:RDF>
      <cc:Work
         rdf:about="">
        <dc:format>image/svg+xml</dc:format>
        <dc:type
           rdf:resource="http://purl.org/dc/dcmitype/StillImage" />
        <dc:title></dc:title>
      </cc:Work>
    </rdf:RDF>
  </metadata>
  <g
     inkscape:label="Layer 1"
     inkscape:groupmode="layer"
     id="layer1">
    <g
       transform="matrix(1.25,0,0,-1.25,-7.4660829,915.65536)"
       inkscape:label="Logo Final"
       id="g3031">
      <g
         id="g3033">
        <g
           clip-path="url(#clipPath3037)"
           id="g3035">
          <g
             transform="translate(475.4395,250.3535)"
             id="g3041">
            <path
               id="path3043"
               style="fill:#4a1705;fill-opacity:1;fill-rule:nonzero;stroke:none"
               d="m 0,0 c 1.515,0.005 0.984,3.757 0.335,5.124 -0.594,1.245 -4.38,3.349 -5.658,3.858 -4.037,1.607 -10.711,0.105 -12.703,3.328 -11.998,19.351 -35.716,57.617 -47.966,78.959 -1.031,1.796 -0.527,5.708 -1.534,8.098 -0.65,1.531 -2.434,2.002 -3.22,3.42 -9.853,17.807 -32.185,53.763 -41.076,72.071 -0.615,1.271 1.948,4.927 2.73,6.412 1.151,2.2 4.809,6.121 4.275,8.548 -1.648,7.433 -12.213,25.901 -18.373,33.478 -0.622,0.753 -1.648,2.372 -3.077,2.802 -0.796,0.244 -2.603,0.358 -4.078,0.168 -5.873,-0.74 -18.699,-7.03 -22.439,-11.994 -1.457,-1.922 -1.607,-0.336 -1.544,-5.691 0.12,-10.69 19.726,-35.132 20.897,-35.452 0.941,-0.252 5.837,-0.101 6.807,-0.008 2.382,0.235 7.554,1.935 8.866,-0.046 0.583,-0.88 40.645,-70.608 42.71,-74.024 1.958,-3.248 -17.421,-23.453 -17.421,-23.453 0,0 -3.704,-3.74 -5.102,-3.803 -1.61,-0.076 -7.72,3.803 -7.72,3.803 l -20.542,21.606 c 0,0 -6.42,2.596 -8.901,3.442 -2.091,0.719 -8.181,1.476 -11.634,2.612 -1.134,0.374 -0.823,4.8 0.228,5.343 1.4,0.732 6.715,6.091 7.745,8.842 0.919,2.457 0.463,7.854 0.549,10.48 0.082,2.477 -1.194,8.813 -0.576,10.483 0.299,0.8 15.469,5.974 19.684,8.893 0.915,0.636 1.671,2.184 1.294,3.231 -0.398,1.107 -2.868,1.266 -3.996,0.938 -4.326,-1.261 -9.66,-4.156 -14.96,-5.107 -3.778,-0.677 -4.71,4.115 -7.482,6.769 -1.574,1.506 -3.891,4.695 -7.482,4.985 -4.39,0.358 -8.87,-1.09 -11.293,-2.074 -1.717,-0.703 -4.936,-5.679 -5.311,-7.627 -0.492,-2.528 -0.629,-8.14 -0.966,-10.837 -0.237,-1.901 -10.504,-4.354 -15.535,-6.613 -1.014,-0.45 -5.6,-2.057 -4.707,-4.472 0.855,-2.318 6.663,-1.295 7.426,-1.026 5.353,1.901 12.353,4.447 14.654,5.229 2.087,0.702 3.271,-8.435 3.271,-8.435 0,0 1.184,-9.078 1.298,-11.993 0.038,-0.804 -15.602,1.834 -20.903,1.897 -3.408,0.038 -9.641,-1.027 -12.815,-2.137 -2.814,-0.976 -7.82,-4.093 -10.52,-5.263 -3.32,-1.439 -9.457,-4.922 -13.031,-5.469 -4.634,-0.719 -9.454,2.066 -20.969,-1.022 -5.213,-1.397 -13.58,-9.373 -18.285,-11.754 -2.106,-1.064 -0.478,0.568 -7.363,-2.491 -6.219,-2.763 -4.36,-5.586 -6.531,-5.822 -8.788,-0.963 -12.494,-1.018 -19.116,-4.152 -6.766,-3.21 -9.705,-9.718 -12.826,-13.062 -1.389,-1.49 -3.322,-0.594 -7.524,-5.953 -1.082,-1.385 -1.853,-5.091 -1.853,-5.091 -3.919,0.118 -12.768,-3.97 -16.86,-9.26 -10.295,-13.318 -8.945,-23.679 -7.359,-29.325 0.666,-2.381 0.875,-3.609 1.544,-4.635 4.747,-7.241 5.562,-6.728 5.562,-6.728 l 231.577,0 c 0,0 8.519,-0.298 11.243,0.678 11.251,4.021 32.264,29.473 37.279,29.649 4.156,0.148 15.519,-24.429 15.452,-30.251"
               inkscape:connector-curvature="0" />
          </g>
          <g
             transform="translate(475.4395,250.3535)"
             id="g3045">
            <path
               id="path3047"
               style="fill:#4a1705;fill-opacity:1;fill-rule:nonzero;stroke:none"
               d="M 0,0 C 0.333,-0.087 0.691,0.085 0.911,0.367 1.127,0.638 1.26,0.943 1.355,1.239 1.544,1.838 1.611,2.43 1.618,3.033 1.619,3.638 1.563,4.25 1.382,4.934 1.333,5.106 1.28,5.281 1.2,5.475 1.105,5.705 0.952,5.939 0.819,6.108 0.544,6.453 0.248,6.729 -0.07,6.99 -0.505,7.35 -1.22,7.865 -2.143,8.423 L -2.499,8.635 -2.684,8.742 -2.731,8.77 -3.459,9.172 c -0.331,0.177 -0.667,0.348 -1.019,0.512 -1.499,0.697 -3.069,0.907 -4.552,1.06 -1.492,0.149 -2.962,0.203 -4.359,0.391 -1.381,0.178 -2.756,0.526 -3.497,1.298 -0.299,0.309 -0.727,1.1 -1.116,1.699 l -1.186,1.915 -2.389,3.855 -9.744,15.766 c -6.586,10.689 -13.352,21.724 -20.2,33.074 -3.421,5.676 -6.865,11.431 -10.289,17.275 l -2.559,4.401 -0.637,1.106 -0.149,0.263 c -0.034,0.06 -0.066,0.128 -0.097,0.199 -0.06,0.145 -0.116,0.304 -0.162,0.478 -0.188,0.699 -0.27,1.524 -0.345,2.362 -0.075,0.842 -0.137,1.715 -0.268,2.613 -0.067,0.45 -0.154,0.909 -0.279,1.374 -0.129,0.464 -0.274,0.933 -0.585,1.451 -0.616,0.985 -1.482,1.518 -2.082,2.016 -0.308,0.249 -0.565,0.489 -0.748,0.734 -0.148,0.189 -0.377,0.638 -0.585,1.003 -6.786,12.075 -14.058,24.103 -21.237,36.385 -3.595,6.137 -7.189,12.32 -10.707,18.578 -1.758,3.13 -3.496,6.279 -5.186,9.458 -0.844,1.588 -1.675,3.186 -2.484,4.792 l -0.602,1.208 c -0.169,0.351 -0.492,0.983 -0.411,0.867 -0.014,0.166 0.081,0.563 0.219,0.919 0.141,0.369 0.319,0.753 0.516,1.134 0.393,0.766 0.848,1.528 1.314,2.307 0.23,0.385 0.478,0.799 0.699,1.216 0.188,0.348 0.421,0.711 0.666,1.076 0.986,1.473 2.129,2.934 3.005,4.701 0.406,0.89 0.86,1.885 0.684,3.206 -0.212,1.042 -0.488,1.878 -0.797,2.782 -0.618,1.764 -1.347,3.459 -2.113,5.134 -3.11,6.671 -6.753,13.04 -10.746,19.218 -1.006,1.54 -2.042,3.064 -3.133,4.558 -0.548,0.747 -1.105,1.485 -1.694,2.215 -0.538,0.655 -1.09,1.481 -1.876,2.195 -0.396,0.355 -0.855,0.693 -1.415,0.933 -0.593,0.246 -1.121,0.306 -1.609,0.365 -0.989,0.101 -1.948,0.104 -2.939,0.012 -1.98,-0.223 -3.764,-0.794 -5.531,-1.41 -3.51,-1.272 -6.853,-2.88 -10.058,-4.761 -1.599,-0.947 -3.159,-1.969 -4.643,-3.135 -0.74,-0.585 -1.461,-1.206 -2.138,-1.902 -0.339,-0.347 -0.667,-0.715 -0.974,-1.112 -0.276,-0.366 -0.484,-0.601 -0.81,-0.901 -0.15,-0.146 -0.43,-0.384 -0.635,-0.772 -0.197,-0.378 -0.249,-0.704 -0.29,-0.978 -0.072,-0.549 -0.077,-1.013 -0.086,-1.486 -0.004,-0.957 -0.012,-1.795 0.029,-2.808 0.15,-1.987 0.704,-3.811 1.35,-5.566 1.325,-3.501 3.081,-6.744 4.944,-9.896 3.78,-6.278 8,-12.195 12.648,-17.799 0.604,-0.703 1.165,-1.375 1.903,-2.082 0.069,-0.063 0.286,-0.266 0.467,-0.352 0.192,-0.108 0.409,-0.174 0.626,-0.2 0.304,-0.042 0.524,-0.054 0.77,-0.069 0.476,-0.025 0.935,-0.033 1.394,-0.036 0.916,-0.005 1.823,0.01 2.73,0.038 l 1.368,0.057 c 0.454,0.018 1.002,0.083 1.442,0.162 1.816,0.313 3.535,0.736 5.161,0.774 0.786,0.025 1.576,-0.131 1.82,-0.406 0.068,-0.022 0.354,-0.568 0.565,-0.912 l 0.671,-1.155 10.622,-18.418 20.755,-36.036 10.128,-17.508 c 0.043,-0.101 0.019,-0.001 0.033,-0.119 0,-0.089 -0.01,-0.22 -0.047,-0.371 -0.07,-0.301 -0.201,-0.645 -0.353,-0.986 -0.313,-0.688 -0.714,-1.379 -1.139,-2.057 -0.855,-1.357 -1.82,-2.674 -2.808,-3.965 -1.987,-2.581 -4.095,-5.065 -6.229,-7.496 -1.258,-1.431 -2.529,-2.843 -3.809,-4.236 l -1.927,-2.074 -0.966,-1.021 c -0.296,-0.295 -0.649,-0.634 -0.979,-0.94 -0.674,-0.622 -1.366,-1.226 -2.07,-1.752 -0.35,-0.26 -0.712,-0.506 -1.038,-0.673 -0.155,-0.083 -0.327,-0.142 -0.357,-0.142 0.014,-0.004 -0.13,0.005 -0.303,0.052 -0.725,0.201 -1.574,0.611 -2.367,1.013 -0.804,0.413 -1.601,0.859 -2.389,1.318 l -1.177,0.699 c -0.359,0.239 -0.884,0.498 -0.928,0.622 l -1.9,1.997 -3.771,3.967 -7.433,7.817 -3.659,3.848 -1.814,1.909 -0.904,0.95 -0.451,0.474 -0.225,0.237 -0.182,0.192 c -0.079,0.071 -0.135,0.176 -0.247,0.199 l -4.99,1.981 -2.416,0.925 c -0.805,0.29 -1.61,0.624 -2.523,0.85 -3.417,0.805 -6.721,1.226 -9.841,2.083 l -0.572,0.166 -0.213,0.067 c -0.003,-0.001 -0.001,0.003 -0.004,0.002 -0.013,0.026 0.022,-0.056 -0.033,0.081 -0.039,0.111 -0.075,0.26 -0.099,0.422 -0.094,0.652 -0.059,1.427 0.074,2.115 0.065,0.34 0.167,0.679 0.28,0.894 0.027,0.051 0.053,0.09 0.068,0.11 l 0.007,0.008 c 0.016,-0.005 -0.003,0.008 -0.055,0.056 -0.077,0.082 -0.138,0.165 -0.174,0.216 -0.228,0.353 0.238,-0.359 0.225,-0.279 l 0.066,0.038 0.165,0.102 c 0.132,0.085 0.213,0.147 0.312,0.217 0.723,0.545 1.321,1.106 1.925,1.683 1.191,1.153 2.3,2.354 3.337,3.627 0.515,0.638 1.012,1.296 1.47,2.004 0.227,0.357 0.446,0.726 0.643,1.131 0.201,0.405 0.363,0.878 0.464,1.301 0.388,1.712 0.396,3.299 0.417,4.875 l -0.049,4.597 0.01,0.545 c 0.006,0.216 0.005,0.427 -0.001,0.63 -0.013,0.407 -0.04,0.799 -0.073,1.186 -0.067,0.772 -0.153,1.525 -0.238,2.271 -0.169,1.487 -0.353,2.957 -0.419,4.362 -0.014,0.349 -0.019,0.694 -0.004,1.015 0.007,0.158 0.018,0.316 0.04,0.446 0.012,0.096 0.003,0.032 0.008,0.055 l 0.092,0.051 0.444,0.222 0.961,0.432 c 1.307,0.562 2.64,1.093 3.955,1.623 2.636,1.058 5.234,2.095 7.761,3.194 1.265,0.55 2.512,1.114 3.737,1.731 0.612,0.312 1.218,0.634 1.821,1.002 0.302,0.193 0.586,0.348 0.958,0.676 0.328,0.3 0.583,0.628 0.798,0.977 0.412,0.702 0.719,1.487 0.645,2.465 -0.031,0.249 -0.078,0.489 -0.19,0.756 -0.135,0.311 -0.356,0.571 -0.554,0.737 -0.416,0.35 -0.824,0.506 -1.21,0.628 -0.773,0.225 -1.494,0.274 -2.233,0.24 -0.37,-0.023 -0.742,-0.064 -1.156,-0.183 l -0.933,-0.292 c -2.45,-0.82 -4.696,-1.811 -6.91,-2.66 -2.207,-0.856 -4.373,-1.599 -6.513,-2.034 -1.085,-0.261 -1.712,-0.165 -2.426,0.342 -0.688,0.507 -1.279,1.364 -1.847,2.236 -0.574,0.881 -1.135,1.815 -1.827,2.696 -0.334,0.433 -0.751,0.887 -1.124,1.242 -0.338,0.334 -0.682,0.706 -1.035,1.075 -1.397,1.479 -3.007,2.969 -5.057,3.68 -1.019,0.374 -2.118,0.444 -3.037,0.456 -0.958,0.017 -1.891,-0.04 -2.796,-0.144 -1.811,-0.212 -3.507,-0.607 -5.091,-1.094 -0.792,-0.243 -1.556,-0.51 -2.294,-0.798 -0.303,-0.1 -0.923,-0.381 -1.243,-0.667 -0.36,-0.28 -0.653,-0.568 -0.927,-0.858 -1.077,-1.165 -1.878,-2.352 -2.591,-3.526 -0.677,-1.192 -1.342,-2.306 -1.598,-3.73 -0.201,-1.221 -0.287,-2.311 -0.372,-3.33 l -0.351,-5.094 c -0.05,-0.68 -0.1,-1.275 -0.154,-1.777 l -0.041,-0.358 -0.004,-0.043 -0.003,-0.021 c -0.091,-0.002 0.797,-0.025 0.414,-0.019 l -0.012,-0.009 c -0.035,-0.014 -0.062,-0.065 -0.103,-0.049 -0.042,0.023 -0.075,0.054 -0.104,0.087 -0.054,0.021 -0.103,0.045 -0.148,0.074 -0.04,0.02 -0.092,-0.095 -0.19,-0.161 -0.396,-0.317 -0.742,-0.477 -0.726,-0.475 0.03,-0.006 -1.606,-0.882 -5.184,-2.079 -1.774,-0.619 -3.996,-1.322 -6.621,-2.289 -0.656,-0.246 -1.337,-0.511 -2.042,-0.818 -0.639,-0.286 -1.4,-0.57 -2.151,-0.948 -0.754,-0.379 -1.536,-0.811 -2.287,-1.495 -0.369,-0.346 -0.743,-0.77 -0.997,-1.366 -0.263,-0.592 -0.282,-1.383 -0.039,-2.003 0.256,-0.701 0.833,-1.217 1.377,-1.491 0.551,-0.282 1.096,-0.418 1.629,-0.508 1.064,-0.163 2.1,-0.142 3.145,-0.048 0.523,0.048 1.045,0.118 1.581,0.217 0.28,0.055 0.514,0.094 0.872,0.202 l 0.758,0.268 3.01,1.076 6.408,2.3 3.395,1.208 0.866,0.302 0.132,0.045 0.007,-0.002 c 0.017,-0.018 -0.032,0.036 0.047,-0.051 0.056,-0.066 0.12,-0.155 0.182,-0.255 0.126,-0.205 0.246,-0.451 0.356,-0.712 0.437,-1.06 0.745,-2.294 1.01,-3.541 0.261,-1.262 0.473,-2.537 0.631,-3.873 0.338,-2.684 0.678,-5.457 0.963,-8.301 0.071,-0.71 0.136,-1.426 0.185,-2.135 l 0.029,-0.525 0.003,-0.065 c -0.814,-0.07 1.116,0.023 0.902,-0.01 -0.063,10e-4 -0.033,0.073 -0.101,0.154 -0.043,0.078 -0.062,0.168 -0.115,0.313 -0.043,0.119 -0.059,0.286 -0.09,0.388 l -0.013,-0.002 -0.073,-0.007 c -0.261,-0.018 -0.63,-0.004 -0.976,0.015 -1.423,0.09 -2.915,0.268 -4.414,0.443 l -9.284,1.124 c -1.596,0.174 -3.208,0.346 -4.885,0.431 -1.718,0.093 -3.425,-0.065 -5.107,-0.268 -1.688,-0.212 -3.376,-0.497 -5.075,-0.863 -1.689,-0.38 -3.424,-0.784 -5.128,-1.553 -3.266,-1.469 -6.282,-3.413 -9.472,-4.848 -3.36,-1.521 -6.56,-3.309 -9.977,-4.58 -0.846,-0.309 -1.708,-0.582 -2.535,-0.723 -0.834,-0.14 -1.71,-0.152 -2.62,-0.1 -1.819,0.114 -3.759,0.405 -5.736,0.505 -3.969,0.242 -8.036,-0.249 -11.966,-1.247 -0.484,-0.125 -0.985,-0.243 -1.522,-0.428 -0.519,-0.178 -1.009,-0.391 -1.49,-0.617 -0.958,-0.455 -1.855,-0.981 -2.734,-1.529 -1.752,-1.102 -3.416,-2.311 -5.069,-3.537 -1.652,-1.226 -3.287,-2.481 -4.954,-3.673 -0.834,-0.595 -1.678,-1.173 -2.535,-1.69 -0.424,-0.254 -0.866,-0.503 -1.282,-0.697 -0.473,-0.219 -0.492,-0.186 -1.245,-0.264 -1.247,-0.198 -2.223,-0.606 -3.243,-0.993 -1.011,-0.403 -1.973,-0.814 -2.981,-1.276 -1.009,-0.477 -2.01,-1.041 -2.928,-1.801 -0.919,-0.733 -1.731,-1.811 -2.192,-2.869 -0.118,-0.25 -0.225,-0.487 -0.315,-0.634 -0.097,-0.157 -0.131,-0.174 -0.169,-0.195 -0.005,-0.051 -0.763,-0.105 -1.251,-0.165 l -3.234,-0.34 c -2.166,-0.233 -4.365,-0.468 -6.581,-0.898 -2.215,-0.424 -4.42,-1.095 -6.517,-1.973 -2.069,-0.842 -4.234,-1.924 -6.038,-3.428 -1.831,-1.472 -3.394,-3.231 -4.794,-5.057 -1.41,-1.815 -2.654,-3.751 -4.066,-5.388 l -0.268,-0.297 c -0.08,-0.086 -0.139,-0.142 -0.215,-0.206 -0.149,-0.122 -0.323,-0.23 -0.539,-0.339 -0.435,-0.216 -1.012,-0.441 -1.564,-0.729 -1.123,-0.573 -2.124,-1.356 -2.995,-2.197 -0.885,-0.862 -1.63,-1.718 -2.406,-2.73 -0.787,-1.203 -1.102,-2.331 -1.46,-3.492 l -0.29,-1.09 c 0,-0.002 -0.003,-0.001 -0.005,-0.001 l -0.085,-0.006 c -0.304,-0.029 -0.633,-0.072 -0.939,-0.125 -1.235,-0.222 -2.4,-0.581 -3.535,-1.005 -2.266,-0.854 -4.412,-1.969 -6.445,-3.293 -2.021,-1.335 -3.946,-2.883 -5.549,-4.824 -1.524,-1.918 -2.88,-3.897 -4.109,-6.012 -2.439,-4.207 -4.236,-8.936 -4.708,-13.924 -0.277,-2.851 -0.107,-5.76 0.492,-8.573 0.149,-0.703 0.325,-1.404 0.517,-2.089 l 0.542,-2.012 c 0.188,-0.681 0.374,-1.394 0.722,-2.145 0.398,-0.806 0.802,-1.296 1.19,-1.906 0.793,-1.171 1.608,-2.333 2.508,-3.468 0.456,-0.567 0.918,-1.125 1.493,-1.674 0.148,-0.138 0.301,-0.275 0.49,-0.415 0.095,-0.071 0.198,-0.142 0.333,-0.216 0.164,-0.066 0.234,-0.176 0.739,-0.204 0.308,0.015 0.691,0.004 1.033,0.008 l 8.461,0 34.197,-0.001 139.251,-0.001 34.158,0 c 5.638,-0.019 11.257,0.041 16.822,-0.041 1.408,-0.007 2.815,0.01 4.228,0.078 1.419,0.079 2.818,0.158 4.311,0.492 0.809,0.192 1.461,0.499 2.127,0.797 0.661,0.307 1.296,0.646 1.912,1.007 1.235,0.715 2.4,1.507 3.535,2.328 8.962,6.675 16.362,14.719 24.304,21.708 0.994,0.863 2.001,1.704 3.032,2.462 0.514,0.376 1.038,0.732 1.558,1.021 0.26,0.151 0.517,0.267 0.756,0.36 0.227,0.094 0.48,0.121 0.497,0.114 0.196,-0.011 0.727,-0.361 1.126,-0.753 0.423,-0.405 0.83,-0.875 1.219,-1.365 0.776,-0.987 1.487,-2.057 2.165,-3.145 1.35,-2.185 2.564,-4.462 3.7,-6.759 0.567,-1.149 1.111,-2.307 1.637,-3.47 l 0.77,-1.749 0.549,-1.299 c 0.756,-1.821 1.317,-3.334 1.587,-4.089 0.501,-1.391 0.928,-2.46 1.371,-3.467 0.425,-1.016 0.927,-1.935 1.265,-3.172 0.287,1.272 0.237,2.408 0.117,3.542 -0.139,1.142 -0.414,2.315 -0.915,3.749 -0.272,0.78 -0.841,2.333 -1.61,4.189 l -0.56,1.323 -0.783,1.78 c -0.534,1.183 -1.088,2.361 -1.666,3.531 -1.158,2.341 -2.393,4.663 -3.792,6.926 -0.705,1.131 -1.445,2.248 -2.295,3.327 -0.427,0.539 -0.881,1.069 -1.409,1.575 -0.562,0.479 -1.082,1.045 -2.208,1.271 -0.643,0.063 -1.049,-0.082 -1.44,-0.214 -0.376,-0.144 -0.721,-0.307 -1.035,-0.487 -0.636,-0.355 -1.208,-0.748 -1.765,-1.154 -1.107,-0.814 -2.141,-1.681 -3.16,-2.564 -4.046,-3.552 -7.869,-7.328 -11.827,-11.019 C -74.127,12.169 -78.145,8.472 -82.516,5.269 -83.61,4.478 -84.729,3.718 -85.884,3.049 -86.459,2.712 -87.045,2.4 -87.639,2.124 -88.231,1.856 -88.846,1.58 -89.39,1.458 c -1.214,-0.275 -2.598,-0.37 -3.951,-0.441 -1.363,-0.065 -2.741,-0.083 -4.122,-0.076 -5.587,0.082 -11.19,0.023 -16.833,0.041 l -34.158,0 -139.251,-0.001 -34.197,-0.001 -8.461,0 -0.528,0 -0.263,0 -0.132,0 -0.066,0 -0.016,0 c -0.345,0.748 -0.382,-1.264 -0.036,-0.921 -0.013,0.042 -0.015,0.071 -0.016,0.105 -10e-4,0.134 0.04,0.295 0.105,0.47 0.033,0.087 0.073,0.18 0.118,0.273 0.023,0.049 0.004,0.015 0.004,0.029 -0.019,0.01 -0.062,0.038 -0.107,0.072 -0.094,0.069 -0.204,0.165 -0.313,0.267 -0.443,0.42 -0.883,0.943 -1.304,1.469 -0.845,1.065 -1.642,2.198 -2.417,3.343 -0.368,0.566 -0.83,1.188 -1.041,1.643 -0.244,0.518 -0.423,1.161 -0.603,1.823 l -0.546,2.027 c -0.185,0.657 -0.348,1.307 -0.487,1.966 -0.56,2.63 -0.717,5.324 -0.459,7.98 0.439,4.646 2.119,9.105 4.452,13.13 1.165,2.009 2.505,3.96 3.929,5.752 1.417,1.72 3.209,3.175 5.109,4.427 1.908,1.245 3.949,2.305 6.057,3.097 1.051,0.394 2.126,0.719 3.183,0.91 0.268,0.045 0.515,0.08 0.791,0.104 l 0.794,0.024 0.438,10e-4 0.219,0.001 c 0.063,0.012 0.043,0.126 0.069,0.184 l 0.184,0.857 0.152,0.63 0.219,0.81 c 0.307,1.05 0.684,2.17 1.176,2.901 0.631,0.819 1.399,1.711 2.166,2.45 0.782,0.754 1.613,1.398 2.533,1.867 0.463,0.244 0.957,0.433 1.547,0.721 0.294,0.149 0.613,0.337 0.906,0.578 0.143,0.118 0.29,0.26 0.404,0.384 l 0.305,0.338 c 1.566,1.826 2.778,3.731 4.146,5.485 1.348,1.76 2.803,3.388 4.47,4.727 1.655,1.372 3.525,2.31 5.558,3.144 1.998,0.835 4.041,1.457 6.143,1.86 2.101,0.408 4.255,0.641 6.412,0.873 l 3.236,0.34 0.808,0.087 c 0.207,0.023 0.7,0.055 1.12,0.279 0.45,0.218 0.786,0.624 0.961,0.93 0.187,0.315 0.295,0.573 0.408,0.808 0.41,0.912 0.929,1.585 1.674,2.202 0.731,0.606 1.599,1.106 2.51,1.534 0.926,0.425 1.914,0.848 2.867,1.227 0.948,0.37 1.949,0.75 2.785,0.874 0.198,0.033 0.43,0.022 0.837,0.094 0.386,0.076 0.694,0.208 0.964,0.33 0.533,0.25 1.002,0.518 1.473,0.799 0.931,0.562 1.806,1.163 2.662,1.774 1.709,1.222 3.346,2.479 4.985,3.695 1.637,1.215 3.27,2.4 4.941,3.45 0.835,0.521 1.68,1.014 2.536,1.421 0.428,0.201 0.858,0.387 1.286,0.533 0.408,0.143 0.88,0.257 1.361,0.38 3.793,0.961 7.619,1.42 11.382,1.192 1.889,-0.094 3.753,-0.378 5.734,-0.504 0.99,-0.057 2.022,-0.05 3.053,0.124 1.036,0.178 1.973,0.484 2.884,0.815 3.614,1.348 6.866,3.17 10.094,4.627 3.405,1.541 6.386,3.467 9.476,4.85 1.473,0.671 3.117,1.065 4.749,1.43 1.635,0.352 3.278,0.63 4.903,0.834 1.629,0.197 3.227,0.341 4.773,0.256 1.585,-0.081 3.186,-0.25 4.762,-0.422 l 9.268,-1.122 c 1.517,-0.177 3.004,-0.356 4.533,-0.453 0.393,-0.019 0.762,-0.043 1.234,-0.013 0.134,0.015 0.24,0.013 0.484,0.082 0.041,0.01 0.144,0.046 0.246,0.101 -0.025,-0.093 0.558,0.45 0.527,0.65 0.001,-0.042 0.071,0.593 0.039,0.359 l -0.004,0.073 -0.032,0.567 c -0.051,0.747 -0.118,1.474 -0.188,2.197 -0.289,2.882 -0.63,5.659 -0.971,8.355 -0.16,1.357 -0.385,2.717 -0.657,4.027 -0.283,1.318 -0.592,2.606 -1.121,3.898 -0.137,0.324 -0.29,0.648 -0.495,0.981 -0.104,0.166 -0.22,0.335 -0.368,0.507 -0.123,0.151 -0.408,0.42 -0.664,0.547 -0.268,0.143 -0.571,0.227 -0.875,0.21 -0.272,0.001 -0.676,-0.157 -0.758,-0.182 l -0.877,-0.305 -3.406,-1.213 -6.409,-2.3 -3.006,-1.075 -0.707,-0.25 c -0.135,-0.042 -0.404,-0.099 -0.623,-0.139 -0.466,-0.086 -0.941,-0.15 -1.407,-0.193 -0.93,-0.086 -1.847,-0.094 -2.652,0.032 -0.814,0.117 -1.436,0.461 -1.488,0.749 -0.072,0.222 -0.071,0.369 0.011,0.58 0.087,0.21 0.277,0.457 0.524,0.684 0.499,0.459 1.161,0.846 1.823,1.174 0.668,0.337 1.349,0.591 2.066,0.909 0.655,0.286 1.309,0.54 1.945,0.778 2.551,0.941 4.783,1.649 6.574,2.273 1.795,0.617 3.167,1.136 4.089,1.539 0.923,0.4 1.401,0.678 1.402,0.677 0.003,0.019 0.337,0.136 1.043,0.694 0.177,0.157 0.389,0.332 0.612,0.709 l 0.079,0.156 c 0.032,0.079 0.063,0.166 0.086,0.252 l 0.025,0.111 0.024,0.165 0.044,0.387 c 0.058,0.536 0.109,1.148 0.16,1.841 l 0.351,5.083 c 0.082,0.991 0.171,2.074 0.349,3.152 0.134,0.889 0.723,1.985 1.351,3.061 0.648,1.074 1.421,2.204 2.336,3.189 0.227,0.241 0.467,0.472 0.7,0.652 0.258,0.202 0.341,0.23 0.759,0.393 0.693,0.27 1.414,0.522 2.159,0.751 1.489,0.458 3.077,0.826 4.74,1.02 0.831,0.096 1.681,0.147 2.539,0.131 0.892,-0.016 1.669,-0.069 2.431,-0.348 1.55,-0.53 2.935,-1.745 4.284,-3.182 0.344,-0.36 0.69,-0.735 1.081,-1.122 0.367,-0.353 0.649,-0.663 0.954,-1.053 0.597,-0.757 1.131,-1.637 1.726,-2.556 0.607,-0.907 1.236,-1.915 2.327,-2.743 0.541,-0.404 1.235,-0.73 1.963,-0.822 0.717,-0.118 1.481,0.025 2.008,0.137 2.315,0.472 4.579,1.254 6.831,2.126 2.253,0.866 4.503,1.854 6.816,2.627 l 0.869,0.272 c 0.195,0.057 0.454,0.093 0.717,0.108 0.527,0.028 1.099,-0.022 1.559,-0.16 0.225,-0.066 0.424,-0.166 0.501,-0.237 0.018,-0.017 0.031,-0.03 0.037,-0.038 -0.004,0.003 0.013,-0.017 -0.003,0.006 -0.023,0.003 0.012,0.087 0.037,0.023 -0.063,-0.065 0.011,-0.12 0.005,-0.2 0.036,-0.325 -0.111,-0.838 -0.369,-1.252 -0.128,-0.209 -0.283,-0.402 -0.444,-0.548 -0.118,-0.114 -0.408,-0.298 -0.666,-0.457 -0.529,-0.324 -1.1,-0.629 -1.683,-0.924 -1.168,-0.59 -2.39,-1.142 -3.633,-1.684 -2.489,-1.081 -5.072,-2.113 -7.71,-3.172 -1.319,-0.532 -2.651,-1.062 -4.003,-1.642 l -1.022,-0.46 -0.532,-0.266 -0.152,-0.085 -0.229,-0.143 c -0.149,-0.099 -0.292,-0.209 -0.392,-0.353 -0.202,-0.262 -0.293,-0.69 -0.335,-0.955 -0.036,-0.231 -0.05,-0.439 -0.06,-0.646 -0.019,-0.412 -0.011,-0.802 0.004,-1.189 0.073,-1.536 0.263,-3.016 0.43,-4.503 0.085,-0.741 0.169,-1.482 0.231,-2.213 0.032,-0.366 0.056,-0.728 0.068,-1.079 0.005,-0.176 0.005,-0.343 0.002,-0.508 l -0.012,-0.595 0.049,-4.604 c -0.013,-1.507 -0.048,-3.063 -0.361,-4.417 -0.278,-1.209 -1.255,-2.475 -2.198,-3.67 -0.974,-1.197 -2.046,-2.358 -3.175,-3.451 -0.562,-0.54 -1.154,-1.084 -1.73,-1.517 -0.177,-0.126 -0.174,-0.13 -0.439,-0.286 -0.442,-0.291 -0.598,-0.59 -0.742,-0.842 -0.26,-0.513 -0.375,-0.97 -0.469,-1.431 -0.17,-0.919 -0.223,-1.808 -0.088,-2.788 0.037,-0.246 0.091,-0.501 0.189,-0.779 0.08,-0.251 0.315,-0.712 0.614,-0.951 0.159,-0.126 0.336,-0.229 0.53,-0.294 l 0.378,-0.122 0.621,-0.18 c 3.286,-0.899 6.674,-1.335 9.879,-2.093 0.74,-0.18 1.518,-0.497 2.322,-0.787 l 2.391,-0.916 4.667,-1.851 7.097,-7.464 7.432,-7.818 3.771,-3.967 1.9,-1.997 0.127,-0.134 c 0.08,-0.082 0.151,-0.174 0.256,-0.226 l 0.351,-0.219 0.598,-0.367 1.206,-0.718 c 0.811,-0.471 1.633,-0.932 2.482,-1.368 0.865,-0.431 1.694,-0.86 2.769,-1.166 0.278,-0.064 0.601,-0.154 1.082,-0.093 0.431,0.072 0.694,0.205 0.955,0.332 0.506,0.262 0.918,0.55 1.32,0.848 0.798,0.597 1.523,1.232 2.233,1.887 0.359,0.334 0.687,0.646 1.059,1.018 l 0.982,1.038 1.942,2.09 c 1.289,1.403 2.569,2.824 3.839,4.267 2.152,2.454 4.281,4.96 6.31,7.597 1.012,1.322 2.003,2.671 2.914,4.116 0.454,0.725 0.891,1.469 1.266,2.294 0.186,0.417 0.359,0.85 0.478,1.361 0.059,0.252 0.1,0.538 0.094,0.864 0.016,0.301 -0.141,0.807 -0.311,1.064 l -10.11,17.479 -20.752,36.035 -10.625,18.424 -0.673,1.158 -0.341,0.582 c -0.086,0.151 -0.284,0.501 -0.548,0.744 -0.516,0.505 -1.134,0.719 -1.67,0.835 -0.545,0.113 -1.058,0.137 -1.553,0.131 -1.959,-0.052 -3.739,-0.513 -5.452,-0.8 -0.442,-0.075 -0.786,-0.118 -1.228,-0.138 l -1.321,-0.055 c -0.885,-0.027 -1.776,-0.042 -2.656,-0.037 -0.439,0.003 -0.879,0.011 -1.301,0.033 -0.202,0.011 -0.431,0.029 -0.573,0.049 l -0.006,0.001 -0.062,0.057 c -0.564,0.537 -1.167,1.241 -1.735,1.906 -4.547,5.481 -8.754,11.379 -12.458,17.534 -1.828,3.088 -3.54,6.267 -4.791,9.577 -0.612,1.65 -1.108,3.353 -1.23,5.007 -0.033,0.806 -0.03,1.791 -0.025,2.655 0.006,0.437 0.018,0.887 0.066,1.241 0.023,0.176 0.062,0.304 0.081,0.331 0.005,0.02 0.068,0.097 0.248,0.262 0.349,0.314 0.747,0.764 1.017,1.129 0.25,0.325 0.529,0.639 0.826,0.944 0.595,0.611 1.258,1.184 1.948,1.73 1.386,1.09 2.885,2.073 4.426,2.987 3.09,1.813 6.359,3.385 9.721,4.601 1.674,0.59 3.405,1.123 5.064,1.305 0.828,0.079 1.706,0.076 2.533,-0.01 0.416,-0.046 0.807,-0.11 1.058,-0.222 0.282,-0.121 0.574,-0.323 0.856,-0.578 0.576,-0.516 1.057,-1.216 1.671,-1.976 0.558,-0.692 1.103,-1.412 1.634,-2.139 1.063,-1.457 2.083,-2.955 3.075,-4.473 3.937,-6.088 7.56,-12.426 10.606,-18.964 0.749,-1.636 1.458,-3.291 2.043,-4.961 0.284,-0.815 0.562,-1.717 0.713,-2.457 0.093,-0.504 -0.152,-1.299 -0.513,-2.028 -0.738,-1.5 -1.834,-2.927 -2.869,-4.463 -0.26,-0.389 -0.52,-0.787 -0.764,-1.238 -0.203,-0.384 -0.422,-0.748 -0.656,-1.142 -0.464,-0.777 -0.942,-1.571 -1.376,-2.417 -0.218,-0.423 -0.425,-0.861 -0.607,-1.338 -0.168,-0.49 -0.359,-0.976 -0.341,-1.72 0.012,-0.184 0.044,-0.416 0.131,-0.627 0.046,-0.12 0.085,-0.199 0.104,-0.234 l 0.074,-0.153 0.301,-0.614 0.609,-1.22 c 0.818,-1.624 1.654,-3.234 2.505,-4.832 1.699,-3.198 3.444,-6.359 5.207,-9.498 3.528,-6.276 7.127,-12.468 10.726,-18.609 7.18,-12.287 14.46,-24.329 21.215,-36.348 0.224,-0.382 0.366,-0.719 0.729,-1.226 0.335,-0.445 0.724,-0.789 1.084,-1.082 0.73,-0.577 1.35,-1.017 1.643,-1.516 0.137,-0.217 0.268,-0.574 0.364,-0.936 0.098,-0.364 0.173,-0.75 0.231,-1.149 0.117,-0.799 0.179,-1.637 0.255,-2.5 0.082,-0.864 0.154,-1.75 0.406,-2.705 0.064,-0.239 0.148,-0.484 0.251,-0.732 0.054,-0.125 0.113,-0.25 0.183,-0.377 l 0.167,-0.293 0.639,-1.109 2.565,-4.412 c 3.431,-5.855 6.877,-11.615 10.302,-17.296 6.853,-11.359 13.622,-22.398 20.211,-33.09 l 9.746,-15.769 2.389,-3.856 1.187,-1.915 0.592,-0.954 c 0.17,-0.279 0.442,-0.726 0.777,-1.072 0.677,-0.693 1.509,-1.108 2.3,-1.372 0.798,-0.265 1.584,-0.408 2.35,-0.511 1.533,-0.204 3.007,-0.255 4.428,-0.398 1.415,-0.143 2.781,-0.35 3.919,-0.888 0.305,-0.141 0.615,-0.299 0.921,-0.463 L -3.705,7.065 -3.661,7.041 -3.489,6.94 -3.157,6.744 C -2.298,6.228 -1.657,5.767 -1.303,5.479 -1.04,5.269 -0.812,5.063 -0.65,4.891 -0.569,4.797 -0.534,4.758 -0.494,4.694 -0.438,4.595 -0.383,4.473 -0.33,4.353 -0.12,3.859 0.051,3.345 0.199,2.849 0.345,2.349 0.475,1.852 0.536,1.34 0.565,1.084 0.572,0.826 0.523,0.575 0.483,0.341 0.313,0.072 0,0"
               inkscape:connector-curvature="0" />
          </g>
          <g
             transform="translate(352.5703,314.0757)"
             id="g3049">
            <path
               id="path3051"
               style="fill:#ffffff;fill-opacity:1;fill-rule:nonzero;stroke:none"
               d="m 0,0 c -1.018,-0.947 -0.427,-4.253 0,-5.583 2.093,-6.458 10.808,-24.93 10.808,-24.93 0,0 1.713,-2.923 2.734,-3.087 0.875,-0.144 3.084,1.783 3.084,1.783 0,0 36.094,24.337 48.917,32.885 C 66.314,1.582 51.866,27.765 50.842,25.977 48.587,22.061 33.014,-2.692 33.014,-2.692 c 0,0 -2.654,-3.635 -4.324,-4.073 C 22.726,-8.342 4.869,-0.354 4.869,-0.354 4.869,-0.354 0.896,0.833 0,0"
               inkscape:connector-curvature="0" />
          </g>
          <g
             transform="translate(352.5703,314.0757)"
             id="g3053">
            <path
               id="path3055"
               style="fill:#4a1705;fill-opacity:1;fill-rule:nonzero;stroke:none"
               d="m 0,0 c -0.572,-0.359 -0.803,-1.042 -0.963,-1.606 -0.153,-0.589 -0.217,-1.171 -0.228,-1.763 -0.01,-0.592 0.033,-1.195 0.15,-1.851 0.124,-0.684 0.344,-1.333 0.595,-2.05 l 0.499,-1.335 0.352,-0.901 1.144,-2.795 c 1.684,-4.011 3.629,-8.356 5.71,-12.898 l 1.588,-3.438 0.812,-1.742 0.206,-0.438 c 0.005,-0.024 0.134,-0.272 0.161,-0.304 l 0.134,-0.217 c 0.181,-0.287 0.366,-0.57 0.562,-0.85 0.397,-0.561 0.8,-1.11 1.375,-1.657 0.316,-0.248 0.586,-0.609 1.412,-0.738 0.462,-0.023 0.661,0.071 0.896,0.141 0.218,0.078 0.402,0.166 0.575,0.257 0.679,0.365 1.231,0.775 1.779,1.205 l 0.404,0.331 c 0.111,0.092 0.013,0.015 0.112,0.085 l 0.204,0.138 0.82,0.552 34.243,23.055 11.524,7.729 1.871,1.248 0.1,0.068 0.026,0.016 0.012,0.008 0.006,0.004 0.173,0.147 c 0.007,0.017 -0.018,-0.044 0.139,0.182 0.05,0.084 0.09,0.177 0.115,0.268 0.021,0.082 0.016,0.073 0.024,0.115 0.039,0.445 -0.024,0.476 -0.041,0.616 -0.055,0.22 -0.11,0.37 -0.164,0.521 -0.107,0.292 -0.21,0.534 -0.304,0.752 -0.376,0.861 -0.594,1.294 -0.592,1.297 0.004,0.017 -2.48,5.201 -6.954,12.861 -1.124,1.916 -2.362,3.99 -3.793,6.157 -0.361,0.541 -0.734,1.088 -1.135,1.639 -0.416,0.554 -0.799,1.095 -1.408,1.681 -0.082,0.075 -0.168,0.152 -0.285,0.236 -0.122,0.081 -0.234,0.176 -0.533,0.269 -0.141,0.04 -0.39,0.088 -0.694,-0.008 -0.326,-0.099 -0.555,-0.372 -0.636,-0.522 L 49.864,26.244 49.343,25.368 48.254,23.578 38.718,8.244 33.684,0.219 32.421,-1.791 C 32.097,-2.345 31.538,-2.985 31.068,-3.546 30.573,-4.115 30.056,-4.665 29.521,-5.122 29.255,-5.35 28.98,-5.553 28.734,-5.688 28.607,-5.755 28.515,-5.794 28.417,-5.82 c -0.151,-0.038 -0.31,-0.069 -0.472,-0.095 -1.335,-0.179 -2.848,0.003 -4.297,0.255 -1.46,0.262 -2.906,0.624 -4.321,1.024 -1.416,0.402 -2.805,0.846 -4.16,1.31 l -2.01,0.709 -1.813,0.676 C 9.506,-1.242 8.014,-0.628 7.269,-0.322 6.582,-0.039 5.962,0.201 5.385,0.407 L 5.264,0.452 C 5.197,0.482 5.126,0.5 5.056,0.516 L 4.816,0.563 4.362,0.637 C 4.063,0.679 3.771,0.709 3.479,0.728 2.897,0.764 2.324,0.76 1.729,0.688 1.433,0.65 1.13,0.595 0.825,0.501 0.531,0.406 0.192,0.271 0,0 0.594,0.23 1.151,-0.007 1.666,-0.136 2.185,-0.297 2.68,-0.484 3.188,-0.673 L 3.961,-0.962 4.36,-1.111 4.557,-1.186 C 4.555,-1.19 4.561,-1.2 4.655,-1.248 5.213,-1.541 5.822,-1.827 6.518,-2.121 7.27,-2.44 8.78,-3.066 10.645,-3.777 l 1.84,-0.686 2.046,-0.722 c 1.382,-0.472 2.801,-0.927 4.26,-1.341 1.46,-0.412 2.957,-0.789 4.513,-1.068 1.56,-0.261 3.161,-0.491 4.928,-0.264 0.223,0.035 0.448,0.078 0.675,0.135 0.281,0.072 0.548,0.191 0.766,0.309 0.438,0.244 0.792,0.517 1.122,0.797 0.657,0.564 1.219,1.166 1.758,1.785 0.537,0.648 1.038,1.194 1.53,1.996 l 1.264,2.01 5.034,8.029 9.544,15.352 1.096,1.803 0.536,0.901 0.13,0.223 -0.666,0.393 -0.029,0.025 c -0.015,0.018 -0.012,0.016 -0.012,0.014 0.011,-0.027 0.013,-0.096 -0.02,-0.213 -0.032,-0.112 -0.098,-0.262 -0.189,-0.422 l -0.077,-0.13 0.002,-0.001 c -10e-4,0.002 0.008,-0.005 0.013,-0.009 0.021,-0.015 0.063,-0.05 0.106,-0.089 0.371,-0.351 0.784,-0.893 1.154,-1.396 0.375,-0.514 0.735,-1.042 1.085,-1.567 1.392,-2.107 2.623,-4.166 3.735,-6.061 4.446,-7.607 6.899,-12.723 6.881,-12.713 -0.003,10e-4 0.214,-0.432 0.562,-1.23 0.084,-0.198 0.179,-0.421 0.263,-0.65 0.04,-0.111 0.082,-0.236 0.1,-0.31 l 0.005,-0.021 0.001,-0.004 0,-0.002 0.113,0.017 c 0.268,0.048 0.536,0.057 0.674,0.04 0.078,-0.012 0.14,-0.007 0.124,-0.05 0.111,-0.174 -0.966,1.475 -0.513,0.775 L 64.992,1.874 64.98,1.866 64.955,1.849 64.854,1.781 62.982,0.532 l -11.53,-7.727 -34.251,-23.05 -0.819,-0.552 -0.205,-0.138 c -0.041,-0.017 -0.269,-0.195 -0.281,-0.213 l -0.358,-0.294 c -0.484,-0.382 -0.996,-0.751 -1.472,-1.005 -0.116,-0.06 -0.229,-0.112 -0.32,-0.144 -0.045,-0.017 -0.082,-0.027 -0.103,-0.032 -0.011,-0.024 -0.017,0.046 -0.012,-0.048 0.03,-0.089 0.102,-0.241 0.024,-0.302 l -0.036,-0.059 -0.017,-0.029 c -0.051,-0.085 0.045,0.076 0.039,0.077 0.005,0.042 0.012,0.082 0.024,0.121 0.013,0.037 0.077,0.248 0.076,0.224 -0.005,0.002 -0.029,0.014 -0.061,0.034 -0.066,0.043 -0.156,0.116 -0.246,0.2 -0.373,0.35 -0.754,0.845 -1.101,1.341 -0.175,0.25 -0.345,0.509 -0.507,0.768 l -0.119,0.193 c -0.061,0.104 -0.005,0.001 -0.064,0.123 l -0.205,0.435 -0.81,1.736 -1.584,3.43 c -2.074,4.528 -4.014,8.861 -5.685,12.837 l -1.131,2.76 -0.349,0.884 -0.493,1.297 c -0.252,0.695 -0.502,1.3 -0.673,1.821 -0.181,0.548 -0.339,1.072 -0.484,1.584 -0.144,0.511 -0.278,1.014 -0.368,1.54 C -0.206,-1.136 -0.316,-0.563 0,0"
               inkscape:connector-curvature="0" />
          </g>
          <g
             transform="translate(167.4146,314.2983)"
             id="g3057">
            <path
               id="path3059"
               style="fill:#ffffff;fill-opacity:1;fill-rule:nonzero;stroke:none"
               d="m 0,0 c 4.02,0 8.607,-6.836 10.206,-9.074 1.972,-2.76 4.743,-9.31 4.754,-12.701 0.013,-5.578 -1.427,-10.804 -1.427,-10.804 -2.322,1.002 -5.285,5.68 -7.006,7.598 -1.806,2.012 -5.435,5.747 -7.361,7.648 -1.404,1.384 -8.543,7.085 -8.543,7.085"
               inkscape:connector-curvature="0" />
          </g>
          <g
             transform="translate(167.4146,314.2983)"
             id="g3061">
            <path
               id="path3063"
               style="fill:#ffffff;fill-opacity:1;fill-rule:nonzero;stroke:none"
               d="m 0,0 c 1.245,-0.35 1.979,-1.062 2.756,-1.758 0.765,-0.72 1.534,-1.519 2.515,-2.577 0.403,-0.434 1.099,-1.221 1.91,-2.265 0.677,-0.866 1.383,-1.85 2.142,-2.928 0.718,-0.997 1.353,-2.176 1.949,-3.411 1.167,-2.467 2.193,-5.191 2.599,-7.617 0.097,-0.623 0.122,-1.116 0.107,-1.744 -0.009,-0.6 -0.034,-1.178 -0.067,-1.727 -0.068,-1.098 -0.177,-2.083 -0.285,-2.905 -0.219,-1.646 -0.426,-2.642 -0.422,-2.642 l -0.216,-1.069 -0.078,-0.358 c 0,-0.013 -0.012,-10e-4 -0.017,0.002 l -0.095,0.081 -0.328,0.298 c -0.221,0.209 -0.447,0.439 -0.675,0.686 -0.458,0.491 -0.925,1.047 -1.403,1.643 -0.973,1.194 -1.912,2.545 -3.109,3.936 -2.35,2.587 -4.859,5.148 -7.034,7.331 -1.5,1.479 -2.787,2.445 -3.415,2.989 -2.33,1.903 -3.868,2.706 -6.211,3.787 1.563,-2.051 2.674,-3.377 4.968,-5.289 0.6,-0.528 1.932,-1.549 3.272,-2.879 2.142,-2.15 4.671,-4.733 6.956,-7.246 1.054,-1.218 2.05,-2.631 3.045,-3.855 0.498,-0.619 0.993,-1.208 1.498,-1.75 0.251,-0.272 0.506,-0.53 0.765,-0.775 l 0.392,-0.355 c 0.083,-0.07 0.417,-0.351 0.634,-0.495 0.495,-0.369 0.968,-0.573 1.41,-0.782 l 0.341,-0.162 0.168,-0.08 c 0.051,-0.024 0.114,-0.072 0.116,0.026 l 0.195,0.716 c 0.246,0.872 0.478,1.951 0.514,2.125 l 0.223,1.113 c -0.004,0 0.212,1.034 0.443,2.748 0.113,0.856 0.228,1.884 0.3,3.039 0.036,0.577 0.063,1.186 0.073,1.82 0.02,0.607 -0.015,1.398 -0.129,2.075 -0.47,2.775 -1.536,5.547 -2.763,8.164 -0.627,1.298 -1.305,2.565 -2.119,3.7 -0.752,1.066 -1.491,2.098 -2.196,2.996 C 7.88,-4.304 7.136,-3.468 6.698,-3.005 5.631,-1.877 4.633,-1.107 3.559,-0.573 2.501,-0.062 1.283,0.291 0,0"
               inkscape:connector-curvature="0" />
          </g>
          <g
             transform="translate(199.2563,332.6699)"
             id="g3065">
            <path
               id="path3067"
               style="fill:#ffffff;fill-opacity:1;fill-rule:nonzero;stroke:none"
               d="m 0,0 c 0,0 8.597,-7.341 11.163,-10.097 3.151,-3.39 9.173,-10.542 11.394,-14.606 1.631,-2.986 4.868,-12.7 4.868,-12.7 0.711,2.965 0.138,10.063 0,13.411 -0.198,4.779 -1.203,14.438 -2.968,18.885 -1.561,3.933 -9.555,13.979 -9.555,13.979"
               inkscape:connector-curvature="0" />
          </g>
          <g
             transform="translate(199.2563,332.6699)"
             id="g3069">
            <path
               id="path3071"
               style="fill:#ffffff;fill-opacity:1;fill-rule:nonzero;stroke:none"
               d="m 0,0 c 1.494,-2.104 2.554,-3.468 4.78,-5.46 l 1.135,-1.019 2.402,-2.199 c 0.725,-0.682 1.489,-1.402 2.196,-2.163 0.732,-0.789 1.476,-1.625 2.225,-2.486 1.499,-1.724 3.023,-3.556 4.489,-5.424 1.457,-1.869 2.88,-3.777 4.036,-5.67 1.105,-1.825 1.836,-3.929 2.562,-5.766 l 0.979,-2.656 1.518,-4.347 0.712,-2.124 0.328,-0.984 0.157,-0.469 c 0.047,-0.123 0.114,-0.419 0.125,-0.202 l 0.432,1.971 0.341,1.597 c -0.01,0.015 0.204,0.701 0.297,2.759 0.021,0.512 0.033,1.093 0.036,1.737 l -0.011,1.26 -0.081,2.565 -0.325,6.486 c -0.149,2.424 -0.398,5.027 -0.749,7.687 -0.36,2.659 -0.798,5.371 -1.509,8.003 -0.182,0.658 -0.384,1.311 -0.629,1.959 -0.25,0.673 -0.571,1.288 -0.886,1.861 -0.629,1.131 -1.345,2.236 -1.955,3.15 -1.115,1.666 -2.079,2.986 -2.562,3.645 -1.793,2.424 -3.104,3.577 -5.141,5.161 1.057,-2.353 1.817,-3.896 3.564,-6.309 0.47,-0.654 1.419,-1.961 2.506,-3.587 0.593,-0.889 1.288,-1.966 1.869,-3.012 0.294,-0.535 0.568,-1.063 0.769,-1.609 0.215,-0.565 0.401,-1.166 0.571,-1.781 0.67,-2.47 1.106,-5.136 1.458,-7.74 0.344,-2.608 0.592,-5.178 0.738,-7.546 l 0.328,-6.451 c 0.159,-4.828 0.066,-3.037 0.091,-3.403 l -0.002,-0.019 c -0.002,-0.027 -0.009,0.013 -0.016,0.029 l -1.122,3.062 c -0.357,0.943 -0.74,1.931 -1.167,2.95 -0.214,0.51 -0.439,1.028 -0.69,1.557 -0.249,0.532 -0.554,1.078 -0.857,1.578 -1.237,2.028 -2.685,3.961 -4.17,5.868 -1.49,1.901 -3.031,3.754 -4.551,5.503 -0.762,0.874 -1.515,1.722 -2.267,2.533 -0.78,0.837 -1.555,1.563 -2.296,2.261 l -2.434,2.222 -1.149,1.02 C 3.815,-2.021 2.305,-1.159 0,0"
               inkscape:connector-curvature="0" />
          </g>
          <g
             transform="translate(253.2056,353.0015)"
             id="g3073">
            <path
               id="path3075"
               style="fill:#ffffff;fill-opacity:1;fill-rule:nonzero;stroke:none"
               d="m 0,0 c 0,0 7.189,-4.186 9.852,-7.568 3.399,-4.304 11.068,-19.562 13.538,-24.454 2.349,-4.666 7.193,-14.826 8.906,-17.812 0.946,-1.666 4.248,10.777 4.514,14.589 0.288,4.203 -1.698,12.549 -2.737,16.638 -0.966,3.833 -2.984,11.329 -5.578,14.808 -1.176,1.578 -5,5.01 -7.005,6.21 -1.708,1.022 -3.073,2.347 -9.072,2.347"
               inkscape:connector-curvature="0" />
          </g>
          <g
             transform="translate(253.2056,353.0015)"
             id="g3077">
            <path
               id="path3079"
               style="fill:#ffffff;fill-opacity:1;fill-rule:nonzero;stroke:none"
               d="m 0,0 c 1.818,-1.827 3.047,-3.009 5.39,-4.777 0.314,-0.242 0.784,-0.607 1.344,-1.078 0.28,-0.235 0.58,-0.499 0.892,-0.786 L 7.942,-6.94 8.326,-7.322 c 0.251,-0.259 0.494,-0.527 0.716,-0.806 0.456,-0.573 0.904,-1.233 1.348,-1.915 3.509,-5.552 7.102,-12.577 10.52,-19.251 3.417,-6.682 6.472,-13.178 8.893,-17.916 l 0.876,-1.698 0.42,-0.784 0.208,-0.377 c 0.098,-0.132 0.039,-0.178 0.408,-0.585 0.249,-0.267 0.799,-0.386 1.137,-0.255 0.284,0.098 0.442,0.239 0.534,0.325 0.2,0.193 0.296,0.341 0.389,0.481 0.176,0.275 0.292,0.515 0.403,0.745 0.213,0.458 0.372,0.866 0.511,1.236 0.54,1.476 0.766,2.306 0.773,2.306 -0.022,0.016 1.104,3.28 2.076,8.594 0.109,0.672 0.224,1.378 0.26,2.172 0.038,0.777 0.008,1.553 -0.049,2.346 -0.118,1.584 -0.353,3.224 -0.65,4.918 -0.597,3.388 -1.441,6.989 -2.389,10.646 -0.969,3.663 -2.054,7.402 -3.679,10.91 -0.416,0.875 -0.87,1.735 -1.424,2.559 -0.566,0.859 -1.256,1.555 -1.896,2.204 -0.653,0.651 -1.315,1.262 -1.98,1.847 L 24.73,1.236 23.783,1.997 C 23.379,2.31 22.985,2.603 22.594,2.867 22.399,3 22.203,3.125 22.007,3.244 L 21.521,3.543 C 20.889,3.951 20.289,4.291 19.884,4.476 18.362,5.177 17.069,5.293 15.914,5.284 14.749,5.26 13.67,5.065 12.418,4.758 13.669,4.442 14.694,4.156 15.738,3.864 16.778,3.56 17.845,3.286 19.045,2.715 19.376,2.558 19.839,2.297 20.476,1.886 L 20.998,1.563 21.491,1.244 C 21.834,1.011 22.2,0.739 22.579,0.446 l 0.897,-0.721 0.958,-0.82 c 0.638,-0.561 1.274,-1.149 1.89,-1.763 0.616,-0.625 1.212,-1.232 1.655,-1.913 0.472,-0.701 0.89,-1.486 1.276,-2.299 1.524,-3.283 2.606,-6.965 3.556,-10.565 0.94,-3.622 1.775,-7.183 2.358,-10.49 0.291,-1.651 0.519,-3.241 0.629,-4.721 0.128,-1.508 0.052,-2.761 -0.188,-4.052 -0.933,-5.121 -2.04,-8.356 -2.013,-8.347 -0.005,0.005 -0.231,-0.818 -0.735,-2.192 -0.129,-0.34 -0.276,-0.716 -0.451,-1.091 -0.087,-0.183 -0.184,-0.374 -0.276,-0.516 l -0.061,-0.087 c -0.01,-0.015 -0.016,-0.022 -0.02,-0.025 l -0.006,-0.008 0.109,-0.104 c 0.189,-0.216 0.295,-0.345 0.329,-0.478 0.036,-0.102 -0.025,-0.074 0.073,0.011 0.027,0.025 0.057,0.027 0.089,0.048 l 0.097,0.128 0.048,0.063 c 0.701,0.292 0.19,0.087 0.346,0.156 l -0.007,0.009 -0.024,0.043 -0.096,0.172 -0.197,0.358 -0.406,0.76 -0.863,1.673 c -2.4,4.702 -5.456,11.205 -8.886,17.919 -3.437,6.709 -7.006,13.71 -10.622,19.432 -0.466,0.714 -0.932,1.404 -1.463,2.072 -0.272,0.341 -0.556,0.653 -0.84,0.947 L 9.306,-5.528 8.958,-5.199 C 8.617,-4.886 8.293,-4.605 7.995,-4.355 7.397,-3.855 6.903,-3.476 6.572,-3.226 4.113,-1.408 2.464,-0.763 0,0"
               inkscape:connector-curvature="0" />
          </g>
          <g
             transform="translate(136.6694,240.9844)"
             id="g3081">
            <path
               id="path3083"
               style="fill:#4a1705;fill-opacity:1;fill-rule:nonzero;stroke:none"
               d="m 0,0 2.349,0 c 0,-1.174 0.253,-2.209 0.757,-3.109 L 2.349,-4.703 c 0.703,-5.941 1.486,-10.392 2.356,-13.365 0,-0.501 -0.268,-0.753 -0.802,-0.753 1.067,-7.758 1.595,-12.487 1.595,-14.157 l -0.793,0 0.793,-1.556 0,-6.302 c 0,-1.183 0.255,-2.222 0.764,-3.109 0,-0.538 -0.255,-0.803 -0.764,-0.803 l 1.562,-19.617 -0.798,0 0.798,-1.607 C 6.526,-66.978 6.262,-67.76 6.262,-68.319 l -2.359,0 c -1.564,0.53 -2.353,2.103 -2.353,4.707 l 0,28.274 -0.795,4.708 c 0,0.538 0.267,0.799 0.795,0.799 -1.565,14.375 -2.352,23.533 -2.352,27.483 C -0.268,-1.321 0,-0.526 0,0"
               inkscape:connector-curvature="0" />
          </g>
          <g
             transform="translate(154.3149,188.2178)"
             id="g3085">
            <path
               id="path3087"
               style="fill:#4a1705;fill-opacity:1;fill-rule:nonzero;stroke:none"
               d="m 0,0 c 1.066,-4.737 2.381,-7.093 3.945,-7.093 l 2.362,0 c 6.801,3.808 10.203,10.879 10.203,21.211 0.509,0 0.763,0.518 0.763,1.557 -0.509,0 -0.763,0.264 -0.763,0.799 C 9.344,16.474 3.841,10.988 0,0 m 22.019,21.182 0.752,-1.557 0,-1.595 C 21.207,8.11 20.424,1.573 20.424,-1.595 c 1.06,-5.233 2.377,-7.858 3.946,-7.858 l 1.557,0 c 0,0.707 2.616,3.585 7.856,8.662 0.166,1.927 1.218,3.492 3.155,4.703 l 0.753,0 0,-0.799 c 0,-7.623 -3.923,-13.378 -11.764,-17.269 l -2.355,0 c -4.705,2.435 -7.062,5.574 -7.062,9.411 -5.348,-4.708 -8.233,-7.064 -8.654,-7.064 l -4.701,0 c -3.14,1.036 -5.763,3.925 -7.862,8.658 l 0,2.36 c 0,6.828 5.241,13.374 15.719,19.616 l 7.855,0 c 0,1.574 1.048,2.357 3.152,2.357"
               inkscape:connector-curvature="0" />
          </g>
          <g
             transform="translate(238.313,244.3408)"
             id="g3089">
            <path
               id="path3091"
               style="fill:#4a1705;fill-opacity:1;fill-rule:nonzero;stroke:none"
               d="m 0,0 c 3.916,0 6.533,-1.304 7.854,-3.916 l 0,-1.595 c -0.59,0 -3.461,0.531 -8.614,1.595 l -0.797,0 c -6.81,-4.842 -10.214,-11.914 -10.214,-21.22 l 0,-1.544 0.804,-5.51 0.752,0 c 7.645,1.039 11.839,1.556 12.563,1.556 L 3.15,-32.19 c 0,-1.426 -3.407,-2.748 -10.213,-3.951 l 0,0.8 -3.904,-1.553 c 3.134,-15.262 4.955,-25.741 5.458,-31.437 -0.782,-2.091 -1.567,-3.151 -2.354,-3.151 -2.578,0 -4.412,5.763 -5.502,17.282 -2.074,8.981 -3.376,17.108 -3.908,24.357 l 0.796,1.557 -0.796,4.707 0.796,1.602 c 0,0.531 -0.264,0.796 -0.796,0.796 C -13.576,-7.063 -7.818,0 0,0"
               inkscape:connector-curvature="0" />
          </g>
          <g
             transform="translate(256.7563,189.7744)"
             id="g3093">
            <path
               id="path3095"
               style="fill:#4a1705;fill-opacity:1;fill-rule:nonzero;stroke:none"
               d="m 0,0 c 0,-6.664 4.45,-10.332 13.362,-11.01 4.647,3.416 7.784,6.568 9.407,9.453 0,5.637 -4.971,9.04 -14.915,10.214 C 3.314,8.657 0.697,5.771 0,0 M 14.155,12.562 C 23.565,10.681 28.273,6.23 28.273,-0.795 l 0,-1.553 c -4.874,-9.953 -10.9,-14.922 -18.066,-14.922 -9.412,2.104 -14.118,6.812 -14.118,14.119 -0.532,0.333 -0.797,2.692 -0.797,7.063 3.527,5.764 9.819,8.65 18.863,8.65"
               inkscape:connector-curvature="0" />
          </g>
          <g
             transform="translate(301.1226,191.3311)"
             id="g3097">
            <path
               id="path3099"
               style="fill:#4a1705;fill-opacity:1;fill-rule:nonzero;stroke:none"
               d="m 0,0 0,-1.557 c 0,-7.337 3.406,-11.009 10.214,-11.009 9.939,2.916 14.911,6.848 14.911,11.813 l 0,0.753 C 23.333,7.337 20.2,11.005 15.712,11.005 5.24,11.005 0,7.337 0,0 m 27.481,25.927 c 1.01,-0.539 1.793,-0.804 2.348,-0.804 l 0,-2.348 c 0,-0.39 -3.13,-2.212 -9.407,-5.46 l -0.795,-1.603 0,-1.548 c 6.3,-3.786 9.449,-8.502 9.449,-14.164 0,-7.459 -5.238,-12.692 -15.713,-15.713 l 0,-0.753 0.756,-3.954 -0.756,0 c 1.567,-5.129 2.349,-8.532 2.349,-10.215 l -2.349,-1.556 c -2.606,3.681 -4.177,5.511 -4.703,5.511 -1.176,0 -2.232,-0.265 -3.15,-0.803 -0.93,0.538 -1.978,0.803 -3.156,0.803 -5.767,-1.069 -8.653,-3.681 -8.653,-7.858 l 0,-3.955 c 0,-7.412 3.403,-11.611 10.207,-12.562 l 5.505,0 c 3.138,1.712 4.706,3.808 4.706,6.302 -1.176,4.628 -2.745,7.24 -4.706,7.858 l -0.753,0 c -1.767,0 -3.6,-0.782 -5.511,-2.351 l -1.594,0 C 0.52,-39.246 0,-38.725 0,-37.689 l 0,2.347 c 0.533,1.577 2.104,2.361 4.706,2.361 l 6.301,0 c 5.238,-3.699 7.861,-7.889 7.861,-12.563 0,-4.206 -3.406,-7.614 -10.208,-10.214 -12.582,0 -18.867,6.025 -18.867,18.069 l 0,0.794 c 0,9.412 4.969,14.115 14.913,14.115 l 4.707,0 c 0,-0.496 0.263,-0.753 0.801,-0.753 l 0,7.067 C 0.803,-16.466 -3.91,-10.98 -3.91,0 l 0,0.799 c 0,7.703 6.542,12.406 19.622,14.118 0,5.352 3.141,9.02 9.413,11.01 l 2.356,0 z"
               inkscape:connector-curvature="0" />
          </g>
          <g
             transform="translate(341.5488,188.2178)"
             id="g3101">
            <path
               id="path3103"
               style="fill:#4a1705;fill-opacity:1;fill-rule:nonzero;stroke:none"
               d="m 0,0 c 1.062,-4.737 2.376,-7.093 3.941,-7.093 l 2.361,0 c 6.808,3.808 10.208,10.879 10.208,21.211 0.502,0 0.759,0.518 0.759,1.557 -0.509,0 -0.759,0.264 -0.759,0.799 C 9.339,16.474 3.836,10.988 0,0 m 22.014,21.182 0.757,-1.557 0,-1.595 C 21.202,8.11 20.42,1.573 20.42,-1.595 c 1.064,-5.233 2.377,-7.858 3.95,-7.858 l 1.552,0 c 0,0.707 2.617,3.585 7.854,8.662 0.173,1.927 1.22,3.492 3.158,4.703 l 0.753,0 0,-0.799 c 0,-7.623 -3.923,-13.378 -11.765,-17.269 l -2.354,0 c -4.705,2.435 -7.058,5.574 -7.058,9.411 -5.352,-4.708 -8.234,-7.064 -8.655,-7.064 l -4.705,0 c -3.14,1.036 -5.758,3.925 -7.862,8.658 l 0,2.36 c 0,6.828 5.241,13.374 15.719,19.616 l 7.856,0 c 0,1.574 1.052,2.357 3.151,2.357"
               inkscape:connector-curvature="0" />
          </g>
          <g
             transform="translate(389.0693,201.5449)"
             id="g3105">
            <path
               id="path3107"
               style="fill:#4a1705;fill-opacity:1;fill-rule:nonzero;stroke:none"
               d="M 0,0 0.801,0 C 2.2,0 3.517,-9.432 4.745,-28.287 L 3.148,-29.04 0,-29.04 c -1.039,9.639 -1.557,18.274 -1.557,25.927 l 0,1.556 C -1.385,-0.521 -0.871,0 0,0 m 0,18.068 0.801,0 c 0.753,0 1.536,-0.791 2.347,-2.355 l 0,-1.557 c 0,-2.721 -0.782,-4.287 -2.347,-4.708 l -2.358,0 c -1.565,0.51 -2.351,2.074 -2.351,4.708 l 0,3.151 L 0,18.068 z"
               inkscape:connector-curvature="0" />
          </g>
          <g
             transform="translate(414.5752,203.1396)"
             id="g3109">
            <path
               id="path3111"
               style="fill:#4a1705;fill-opacity:1;fill-rule:nonzero;stroke:none"
               d="m 0,0 c 5.037,0 9.226,-6.294 12.562,-18.876 0,-1.309 0.264,-3.395 0.796,-6.252 -1.006,-2.414 -2.058,-3.727 -3.15,-3.95 l -0.798,0 c -1.428,0 -2.999,6.024 -4.707,18.068 -2.074,4.198 -3.908,6.302 -5.507,6.302 -4.173,-2.104 -6.256,-4.989 -6.256,-8.657 l 0,-7.055 c 0,-1.183 0.264,-2.229 0.796,-3.151 -0.532,-2.642 -1.847,-3.95 -3.951,-3.95 -3.138,10.445 -4.707,18.303 -4.707,23.566 l 1.557,0.804 0.802,0 c 0,-0.841 0.514,-2.945 1.549,-6.302 C -6.978,-3.151 -3.307,0 0,0"
               inkscape:connector-curvature="0" />
          </g>
          <g
             transform="translate(438.4805,188.2178)"
             id="g3113">
            <path
               id="path3115"
               style="fill:#4a1705;fill-opacity:1;fill-rule:nonzero;stroke:none"
               d="m 0,0 c 1.066,-4.737 2.383,-7.093 3.948,-7.093 l 2.356,0 c 6.806,3.808 10.206,10.879 10.206,21.211 0.509,0 0.763,0.518 0.763,1.557 -0.508,0 -0.763,0.264 -0.763,0.799 C 9.344,16.474 3.839,10.988 0,0 m 22.017,21.182 0.754,-1.557 0,-1.595 C 21.204,8.11 20.422,1.573 20.422,-1.595 c 1.062,-5.233 2.377,-7.858 3.95,-7.858 l 1.555,0 c 0,0.707 2.616,3.585 7.856,8.662 0.166,1.927 1.218,3.492 3.155,4.703 l 0.753,0 0,-0.799 c 0,-7.623 -3.922,-13.378 -11.764,-17.269 l -2.354,0 c -4.705,2.435 -7.063,5.574 -7.063,9.411 -5.347,-4.708 -8.229,-7.064 -8.654,-7.064 l -4.701,0 c -3.14,1.036 -5.761,3.925 -7.86,8.658 l 0,2.36 c 0,6.828 5.237,13.374 15.717,19.616 l 7.856,0 c 0,1.574 1.045,2.357 3.149,2.357"
               inkscape:connector-curvature="0" />
          </g>
        </g>
      </g>
    </g>
  </g>
</svg>
