<?xml version="1.0" encoding="UTF-8" standalone="no"?>
<!-- Created with Inkscape (http://www.inkscape.org/) -->

<svg
   xmlns:dc="http://purl.org/dc/elements/1.1/"
   xmlns:cc="http://creativecommons.org/ns#"
   xmlns:rdf="http://www.w3.org/1999/02/22-rdf-syntax-ns#"
   xmlns:svg="http://www.w3.org/2000/svg"
   xmlns="http://www.w3.org/2000/svg"
   xmlns:sodipodi="http://sodipodi.sourceforge.net/DTD/sodipodi-0.dtd"
   xmlns:inkscape="http://www.inkscape.org/namespaces/inkscape"
   id="svg3071"
   version="1.1"
   inkscape:version="0.48.4 r9939"
   width="488.35999"
   height="167.36"
   xml:space="preserve"
   sodipodi:docname="logo3.svg"><metadata
     id="metadata3077"><rdf:RDF><cc:Work
         rdf:about=""><dc:format>image/svg+xml</dc:format><dc:type
           rdf:resource="http://purl.org/dc/dcmitype/StillImage" /><dc:title></dc:title></cc:Work></rdf:RDF></metadata><defs
     id="defs3075"><clipPath
       clipPathUnits="userSpaceOnUse"
       id="clipPath3085"><path
         d="m 0,612.288 612.288,0 L 612.288,0 0,0 0,612.288 z"
         id="path3087"
         inkscape:connector-curvature="0" /></clipPath></defs><sodipodi:namedview
     pagecolor="#ffffff"
     bordercolor="#666666"
     borderopacity="1"
     objecttolerance="10"
     gridtolerance="10"
     guidetolerance="10"
     inkscape:pageopacity="0"
     inkscape:pageshadow="2"
     inkscape:window-width="1680"
     inkscape:window-height="995"
     id="namedview3073"
     showgrid="false"
     inkscape:zoom="4.9336261"
     inkscape:cx="299.02861"
     inkscape:cy="55.990796"
     inkscape:window-x="0"
     inkscape:window-y="27"
     inkscape:window-maximized="1"
     inkscape:current-layer="g3079"
     borderlayer="false"
     showguides="false" /><g
     id="g3079"
     inkscape:groupmode="layer"
     inkscape:label="Logo Final"
     transform="matrix(1.25,0,0,-1.25,0,167.36652)"><path
       inkscape:connector-curvature="0"
       id="path3091"
       style="fill:#000000;fill-opacity:1;fill-rule:nonzero;stroke:none"
       d="m 345.65295,52.37411 c -0.147,0.309 -1.086,0.831 -1.404,0.957 -1.002,0.398 -2.658,0.026 -3.151,0.825 -2.976,4.802 -8.862,14.294 -11.899,19.588 -0.258,0.447 -0.133,1.415 -0.383,2.009 -0.16,0.38 -0.602,0.497 -0.798,0.848 -2.442,4.418 -7.984,13.339 -10.19,17.88 -0.154,0.315 0.483,1.223 0.678,1.591 0.286,0.546 1.191,1.518 1.059,2.12 -0.409,1.845 -3.03,6.428 -4.558,8.306 -0.153,0.188 -0.408,0.587 -0.762,0.696 -0.197,0.06 -0.646,0.089 -1.012,0.042 -1.458,-0.185 -4.64,-1.745 -5.568,-2.977 -0.36,-0.477 -0.398,-0.083 -0.383,-1.412 0.03,-2.651 4.894,-8.716 5.184,-8.794 0.234,-0.062 1.45,-0.024 1.69,-0.002 0.592,0.059 1.874,0.48 2.198,-0.012 0.146,-0.218 10.085,-17.517 10.596,-18.364 0.486,-0.804 -4.319,-5.818 -4.319,-5.818 0,0 -0.921,-0.928 -1.268,-0.944 -0.398,-0.018 -1.914,0.944 -1.914,0.944 l -5.097,5.359 c 0,0 -1.592,0.644 -2.21,0.856 -0.517,0.177 -2.027,0.364 -2.885,0.647 -0.28,0.092 -0.205,1.191 0.057,1.326 0.348,0.181 1.665,1.511 1.922,2.193 0.227,0.609 0.114,1.949 0.135,2.599 0.02,0.617 -0.295,2.188 -0.143,2.603 0.074,0.196 3.839,1.48 4.885,2.204 0.226,0.157 0.414,0.543 0.32,0.802 -0.099,0.273 -0.712,0.314 -0.992,0.232 -1.072,-0.312 -2.396,-1.031 -3.712,-1.266 -0.937,-0.167 -1.167,1.019 -1.854,1.679 -0.391,0.374 -0.967,1.165 -1.856,1.237 -1.091,0.088 -2.202,-0.269 -2.803,-0.515 -0.425,-0.173 -1.223,-1.408 -1.317,-1.892 -0.122,-0.628 -0.157,-2.018 -0.239,-2.689 -0.06,-0.472 -2.608,-1.08 -3.856,-1.64 -0.252,-0.113 -1.388,-0.509 -1.168,-1.109 0.213,-0.575 1.654,-0.322 1.843,-0.255 1.329,0.473 3.066,1.104 3.637,1.296 0.516,0.176 0.808,-2.091 0.808,-2.091 0,0 0.296,-2.252 0.326,-2.976 0.007,-0.201 -3.871,0.456 -5.187,0.471 -0.847,0.01 -3.386,-0.27 -4.216,-0.342 -0.452,-0.039 -2.026,0.384 -2.58,-1.83 1.987,-0.996 6.429,-0.253 7.255,-4.349 0.249,-1.236 0.226,-2.987 0.379,-4.362 0.204,-1.832 0.037,-2.79 0.412,-4.624 0.667,-3.263 0.127,-5.473 0.127,-5.473 -3.859,-3.541 -8.536,-6.846 -2.554,-6.846 l 21.924,10e-4 c 0,0 2.113,-0.076 2.79,0.167 2.79,0.999 8.005,7.311 9.248,7.357 1.033,0.037 3.659,-6.36 4.514,-7.524 0.162,-0.22 6.121,-0.01 8.206,0 0.377,0 0.246,0.93 0.085,1.271" /><path
       inkscape:connector-curvature="0"
       id="path3095"
       style="fill:#ffffff;fill-opacity:1;fill-rule:evenodd;stroke:none;opacity:0"
       d="m 315.08845,66.90971 c -0.254,-0.235 -0.107,-1.055 0,-1.384 0.518,-1.603 2.681,-6.185 2.681,-6.185 0,0 0.425,-0.724 0.676,-0.765 0.218,-0.037 0.765,0.441 0.765,0.441 0,0 8.956,6.039 12.137,8.159 0.191,0.127 -3.394,6.623 -3.648,6.179 -0.559,-0.972 -4.423,-7.112 -4.423,-7.112 0,0 -0.657,-0.903 -1.072,-1.012 -1.479,-0.389 -5.91,1.592 -5.91,1.592 0,0 -0.984,0.294 -1.206,0.087" /><g
       id="g3097"
       transform="translate(43.97615,98.12941)"
       style="fill:#000000"><path
         d="m 0,0 1.829,0 c 0,-0.915 0.196,-1.722 0.588,-2.419 L 1.829,-3.66 c 0.544,-4.619 1.154,-8.084 1.829,-10.393 0,-0.392 -0.207,-0.588 -0.62,-0.588 0.827,-6.037 1.242,-9.706 1.242,-11.014 l -0.622,0 0.622,-1.208 0,-4.904 c 0,-0.915 0.197,-1.721 0.588,-2.418 0,-0.414 -0.195,-0.62 -0.588,-0.62 l 1.21,-15.262 -0.622,0 0.622,-1.242 c -0.415,-0.784 -0.622,-1.395 -0.622,-1.83 l -1.83,0 c -1.22,0.414 -1.831,1.635 -1.831,3.66 l 0,21.995 -0.619,3.66 c 0,0.413 0.206,0.62 0.619,0.62 -1.22,11.178 -1.829,18.302 -1.829,21.373 C -0.208,-1.024 0,-0.415 0,0"
         style="fill:#000000;fill-opacity:1;fill-rule:nonzero;stroke:none"
         id="path3099"
         inkscape:connector-curvature="0" /></g><g
       id="g3101"
       transform="translate(57.70075,62.11531)"
       style="fill:#000000"><path
         d="m 0,0 c 0.828,-3.682 1.852,-5.523 3.072,-5.523 l 1.83,0 c 5.294,2.962 7.942,8.463 7.942,16.504 0.392,0 0.589,0.402 0.589,1.209 -0.393,0 -0.589,0.206 -0.589,0.62 C 7.266,12.81 2.984,8.54 0,0 m 17.125,16.471 0.588,-1.211 0,-1.24 c -1.22,-7.714 -1.83,-12.8 -1.83,-15.261 0.828,-4.076 1.851,-6.113 3.072,-6.113 l 1.21,0 c 0,0.545 2.037,2.79 6.111,6.733 0.13,1.502 0.948,2.723 2.451,3.659 l 0.589,0 0,-0.621 c 0,-5.926 -3.052,-10.402 -9.151,-13.431 l -1.83,0 c -3.661,1.896 -5.491,4.336 -5.491,7.321 C 8.682,-7.354 6.438,-9.185 6.112,-9.185 l -3.661,0 c -2.439,0.808 -4.477,3.052 -6.111,6.733 l 0,1.831 c 0,5.316 4.073,10.404 12.223,15.262 l 6.111,0 c 0,1.22 0.817,1.83 2.451,1.83"
         style="fill:#000000;fill-opacity:1;fill-rule:nonzero;stroke:none"
         id="path3103"
         inkscape:connector-curvature="0" /></g><g
       id="g3105"
       transform="translate(123.02985,102.41071)"
       style="fill:#000000"><path
         d="m 0,0 c 3.051,0 5.089,-1.014 6.112,-3.039 l 0,-1.242 c -0.457,0 -2.691,0.413 -6.699,1.242 l -0.623,0 c -5.294,-3.771 -7.939,-9.272 -7.939,-16.505 l 0,-1.208 0.621,-4.283 0.587,0 c 5.949,0.806 9.206,1.211 9.772,1.211 l 0.62,-1.211 c 0,-1.111 -2.646,-2.133 -7.941,-3.07 l 0,0.62 -3.038,-1.208 c 2.438,-11.875 3.856,-20.024 4.249,-24.446 -0.612,-1.634 -1.223,-2.451 -1.831,-2.451 -2.005,0 -3.432,4.477 -4.283,13.431 -1.612,6.993 -2.625,13.312 -3.039,18.956 l 0.621,1.208 -0.621,3.661 0.621,1.241 c 0,0.414 -0.207,0.62 -0.621,0.62 C -10.555,-5.49 -6.079,0 0,0"
         style="fill:#000000;fill-opacity:1;fill-rule:nonzero;stroke:none"
         id="path3107"
         inkscape:connector-curvature="0" /></g><g
       id="g3109"
       transform="translate(137.37755,63.32471)"
       style="fill:#000000"><path
         d="m 0,0 c 0,-5.185 3.464,-8.041 10.393,-8.563 3.615,2.657 6.055,5.108 7.32,7.354 0,4.379 -3.867,7.025 -11.602,7.939 C 2.581,6.73 0.544,4.486 0,0 m 11.013,9.771 c 7.321,-1.459 10.98,-4.925 10.98,-10.392 l 0,-1.21 c -3.79,-7.734 -8.474,-11.6 -14.052,-11.6 -7.32,1.633 -10.98,5.293 -10.98,10.98 -0.414,0.261 -0.622,2.092 -0.622,5.489 2.745,4.487 7.636,6.733 14.674,6.733"
         style="fill:#000000;fill-opacity:1;fill-rule:nonzero;stroke:none"
         id="path3111"
         inkscape:connector-curvature="0" /></g><g
       id="g3113"
       transform="translate(171.88825,64.53281)"
       style="fill:#000000"><path
         d="m 0,0 0,-1.208 c 0,-5.709 2.646,-8.563 7.941,-8.563 7.735,2.267 11.602,5.326 11.602,9.183 l 0,0.588 C 18.149,5.708 15.709,8.563 12.223,8.563 4.073,8.563 0,5.708 0,0 m 21.374,20.165 c 0.783,-0.415 1.394,-0.621 1.829,-0.621 l 0,-1.83 c 0,-0.306 -2.44,-1.722 -7.32,-4.248 l -0.621,-1.242 0,-1.211 C 20.164,8.072 22.615,4.401 22.615,0 c 0,-5.796 -4.073,-9.869 -12.222,-12.222 l 0,-0.588 0.588,-3.072 -0.588,0 c 1.22,-3.988 1.83,-6.634 1.83,-7.942 l -1.83,-1.209 c -2.027,2.854 -3.247,4.282 -3.661,4.282 -0.915,0 -1.732,-0.208 -2.451,-0.622 -0.718,0.414 -1.535,0.622 -2.451,0.622 -4.488,-0.829 -6.732,-2.866 -6.732,-6.112 l 0,-3.072 c 0,-5.773 2.647,-9.03 7.941,-9.772 l 4.281,0 c 2.441,1.331 3.661,2.963 3.661,4.902 -0.916,3.596 -2.135,5.633 -3.661,6.112 l -0.588,0 c -1.373,0 -2.799,-0.609 -4.281,-1.83 l -1.242,0 C 0.403,-30.523 0,-30.121 0,-29.314 l 0,1.83 c 0.414,1.221 1.634,1.83 3.66,1.83 l 4.903,0 c 4.074,-2.876 6.111,-6.134 6.111,-9.771 0,-3.269 -2.648,-5.915 -7.942,-7.942 -9.782,0 -14.673,4.685 -14.673,14.053 l 0,0.621 c 0,7.32 3.867,10.981 11.601,10.981 l 3.66,0 c 0,-0.393 0.208,-0.588 0.621,-0.588 l 0,5.49 c -7.32,0 -10.98,4.27 -10.98,12.81 l 0,0.62 c 0,5.993 5.087,9.652 15.262,10.983 0,4.161 2.44,7.014 7.32,8.562 l 1.831,0 z"
         style="fill:#000000;fill-opacity:1;fill-rule:nonzero;stroke:none"
         id="path3115"
         inkscape:connector-curvature="0" /></g><g
       id="g3117"
       transform="translate(203.32775,62.11531)"
       style="fill:#000000"><path
         d="m 0,0 c 0.827,-3.682 1.852,-5.523 3.072,-5.523 l 1.83,0 c 5.293,2.962 7.942,8.463 7.942,16.504 0.39,0 0.588,0.402 0.588,1.209 -0.392,0 -0.588,0.206 -0.588,0.62 C 7.266,12.81 2.984,8.54 0,0 m 17.124,16.471 0.588,-1.211 0,-1.24 c -1.22,-7.714 -1.829,-12.8 -1.829,-15.261 0.828,-4.076 1.851,-6.113 3.072,-6.113 l 1.208,0 c 0,0.545 2.038,2.79 6.112,6.733 0.131,1.502 0.949,2.723 2.452,3.659 l 0.588,0 0,-0.621 c 0,-5.926 -3.052,-10.402 -9.152,-13.431 l -1.829,0 c -3.661,1.896 -5.49,4.336 -5.49,7.321 C 8.682,-7.354 6.438,-9.185 6.111,-9.185 l -3.66,0 c -2.441,0.808 -4.478,3.052 -6.112,6.733 l 0,1.831 c 0,5.316 4.074,10.404 12.224,15.262 l 6.11,0 c 0,1.22 0.818,1.83 2.451,1.83"
         style="fill:#000000;fill-opacity:1;fill-rule:nonzero;stroke:none"
         id="path3119"
         inkscape:connector-curvature="0" /></g><g
       id="g3121"
       transform="translate(240.28965,72.47421)"
       style="fill:#000000"><path
         d="M 0,0 0.621,0 C 1.71,0 2.734,-7.331 3.693,-21.994 l -1.242,-0.587 -2.451,0 c -0.807,7.495 -1.209,14.215 -1.209,20.162 l 0,1.211 C -1.078,-0.403 -0.676,0 0,0 m 0,14.054 0.621,0 c 0.588,0 1.198,-0.611 1.83,-1.83 l 0,-1.209 C 2.451,8.9 1.841,7.681 0.621,7.354 l -1.83,0 c -1.222,0.392 -1.83,1.612 -1.83,3.661 l 0,2.449 3.039,0.59 z"
         style="fill:#000000;fill-opacity:1;fill-rule:nonzero;stroke:none"
         id="path3123"
         inkscape:connector-curvature="0" /></g><g
       id="g3125"
       transform="translate(260.12755,73.71731)"
       style="fill:#000000"><path
         d="m 0,0 c 3.922,0 7.179,-4.892 9.771,-14.674 0,-1.026 0.208,-2.648 0.621,-4.87 -0.784,-1.873 -1.601,-2.898 -2.451,-3.072 l -0.621,0 c -1.111,0 -2.331,4.684 -3.66,14.052 -1.612,3.268 -3.039,4.902 -4.281,4.902 -3.246,-1.634 -4.869,-3.878 -4.869,-6.731 l 0,-5.491 c 0,-0.914 0.206,-1.731 0.621,-2.449 -0.415,-2.048 -1.439,-3.074 -3.072,-3.074 -2.441,8.126 -3.661,14.238 -3.661,18.335 l 1.209,0.621 0.622,0 c 0,-0.655 0.402,-2.287 1.208,-4.903 C -5.425,-2.451 -2.571,0 0,0"
         style="fill:#000000;fill-opacity:1;fill-rule:nonzero;stroke:none"
         id="path3127"
         inkscape:connector-curvature="0" /></g><path
       inkscape:connector-curvature="0"
       id="path3131"
       style="fill:#000000;fill-opacity:1;fill-rule:nonzero;stroke:none"
       d="m 278.72225,62.11531 c 0.829,-3.682 1.852,-5.523 3.072,-5.523 l 1.83,0 c 5.294,2.962 7.942,8.463 7.942,16.504 0.391,0 0.588,0.402 0.588,1.209 -0.393,0 -0.588,0.206 -0.588,0.62 -5.577,0 -9.86,-4.27 -12.844,-12.81 m 17.125,16.471 0.588,-1.211 0,-1.24 c -1.22,-7.714 -1.83,-12.8 -1.83,-15.261 0.828,-4.076 1.852,-6.113 3.071,-6.113 l 1.21,0 c 0,0.545 2.037,2.79 6.111,6.733 0.132,1.502 0.948,2.723 2.452,3.659 l 0.587,0 0,-0.621 c 0,-5.926 -3.048,-10.402 -9.15,-13.431 l -1.83,0 c -3.66,1.896 -5.49,4.336 -5.49,7.321 -4.161,-3.661 -6.406,-5.492 -6.733,-5.492 l -3.66,0 c -2.44,0.808 -4.477,3.052 -6.111,6.733 l 0,1.831 c 0,5.316 4.074,10.404 12.223,15.262 l 6.111,0 c 0,1.22 0.816,1.83 2.451,1.83" /></g></svg>